<?xml version="1.0" encoding="utf-8"?>
<!-- Generator: Adobe Illustrator 22.0.0, SVG Export Plug-In . SVG Version: 6.00 Build 0)  -->
<svg version="1.1" id="Layer_1" xmlns="http://www.w3.org/2000/svg" xmlns:xlink="http://www.w3.org/1999/xlink" x="0px" y="0px"
	 viewBox="0 0 539 444" style="enable-background:new 0 0 539 444;" xml:space="preserve">
<style type="text/css">
	.st0{fill:#B3B5B8;}
	.st1{fill:#231F20;}
	.st2{fill:#FED61A;}
	.st3{fill:#CFD1D2;}
	.st4{fill:#55481D;}
	.st5{fill:#EBEBEB;}
	.st6{fill:#9E1C20;}
	.st7{fill:#7E6628;}
	.st8{fill:#D37E28;}
	.st9{fill:#898A8C;}
	.st10{fill:#263238;}
	.st11{fill:#DBDBDB;}
	.st12{fill:#A6A6A6;}
	.st13{fill:#5EC6CA;}
	.st14{opacity:0.1;enable-background:new    ;}
	.st15{fill:#4BB749;}
	.st16{fill:#6EB544;}
	.st17{fill:#353015;}
	.st18{fill:#C7C7C7;}
	.st19{fill:none;}
	.st20{fill:#B37129;}
	.st21{fill:#D4DE25;}
	.st22{fill:#8A8C8E;}
	.st23{fill:#D7DF23;}
	.st24{fill:#D3766A;}
	.st25{fill:#DA5C5C;}
	.st26{fill:#37474F;}
	.st27{fill:#FF9ABB;}
	.st28{fill:#FFFFFF;}
	.st29{fill:#AD6359;}
	.st30{fill:#455A64;}
	.st31{opacity:0.1;}
	.st32{opacity:0.2;enable-background:new    ;}
	.st33{fill:#F8A375;}
	.st34{fill:#F0ED78;}
	.st35{fill:#EE2525;}
	.st36{fill:#ED1F25;}
	.st37{fill:#ED1C24;}
	.st38{font-family:'MyriadPro-Regular';}
	.st39{font-size:12px;}
	.st40{font-size:8px;}
</style>
<path class="st0" d="M116.7,15.3H36v182.5h80.7V15.3z"/>
<path class="st1" d="M121.6,202.9H31V10.2h90.6V202.9z M40.9,192.7h70.8V20.4H40.9V192.7z"/>
<path class="st2" d="M116.7,103.7H36v5.2h80.7V103.7z"/>
<path class="st2" d="M116.7,65.2H36v5.2h80.7V65.2z"/>
<path class="st2" d="M93,25.1v80.1h4.5V25.1H93z"/>
<path class="st2" d="M74.1,25.1v80.1h4.5V25.1H74.1z"/>
<path class="st2" d="M55.1,25.1v80.1h4.5V25.1H55.1z"/>
<path class="st1" d="M125.9,9.4H26.8v18.7h99.1V9.4z"/>
<path class="st1" d="M125.9,9.4H26.8v13h99.1V9.4z"/>
<path class="st1" d="M132.1,0H20.6v18.7h111.6V0z"/>
<path class="st3" d="M270,15.3h-80.7v182.5H270V15.3z"/>
<path class="st1" d="M275,202.9h-90.6V10.2H275V202.9z M194.2,192.7h70.8V20.4h-70.8V192.7z"/>
<path class="st2" d="M270,103.7h-80.7v5.2H270V103.7z"/>
<path class="st2" d="M270,65.2h-80.7v5.2H270V65.2z"/>
<path class="st2" d="M246.3,25.1v80.1h4.5V25.1H246.3z"/>
<path class="st2" d="M227.4,25.1v80.1h4.5V25.1H227.4z"/>
<path class="st2" d="M208.4,25.1v80.1h4.5V25.1H208.4z"/>
<path class="st1" d="M279.2,9.4h-99.1v18.7h99.1V9.4z"/>
<path class="st1" d="M279.2,9.4h-99.1v13h99.1V9.4z"/>
<path class="st1" d="M285.4,0H173.9v18.7h111.6V0z"/>
<path class="st4" d="M306.9,259.5l11-0.2l5.4-0.1c1.8,0,3.6,0,5.4-0.1l-0.4,0.4l-0.1-9.5l0.4,0.4l-10.9,0c-3.6,0-7.3-0.1-10.9-0.1
	l0.2-0.2c0,1.6-0.1,3.1-0.1,4.7L306.9,259.5z M306.9,259.5l-0.1-4.7c0-1.6-0.1-3.2-0.1-4.8v-0.2h0.2c3.6,0,7.3-0.1,10.9-0.1
	l10.9-0.1h0.4v0.4v9.5v0.4h-0.4c-1.8,0-3.7,0-5.5-0.1l-5.5-0.1L306.9,259.5z"/>
<path class="st4" d="M319.1,271.5l11-0.2l5.4-0.1c1.8,0,3.6,0,5.4-0.1l-0.4,0.4l0-9.5l0.4,0.4l-10.9-0.1c-3.6,0-7.3-0.1-10.9-0.1
	l0.2-0.2c0,1.6-0.1,3.1-0.1,4.7L319.1,271.5z M319.1,271.5l-0.1-4.7c0-1.6-0.1-3.2-0.1-4.8v-0.2h0.2c3.6,0,7.3-0.1,10.9-0.1
	l10.9-0.1h0.4v0.4l0,9.5v0.4h-0.4c-1.8,0-3.7,0-5.5-0.1l-5.5-0.1L319.1,271.5z"/>
<path class="st4" d="M294.7,271.5l11-0.2l5.4-0.1c1.8,0,3.6,0,5.4-0.1l-0.4,0.4l0-9.5l0.4,0.4l-10.9-0.1c-3.6,0-7.3-0.1-10.9-0.1
	l0.2-0.2c0,1.6-0.1,3.1-0.1,4.7L294.7,271.5z M294.7,271.5l-0.1-4.7c0-1.6-0.1-3.2-0.1-4.8v-0.2h0.2c3.6,0,7.3-0.1,10.9-0.1
	l10.9-0.1h0.4v0.4l0,9.5v0.4h-0.4c-1.8,0-3.7,0-5.5-0.1l-5.5-0.1L294.7,271.5z"/>
<path class="st5" d="M13.3,271.5l11-0.2l5.4-0.1c1.8,0,3.6,0,5.4-0.1l-0.4,0.4l0-9.5l0.4,0.4l-10.9-0.1c-3.6,0-7.3-0.1-10.9-0.1
	l0.2-0.2c0,1.6-0.1,3.1-0.1,4.7L13.3,271.5z M13.3,271.5l-0.1-4.7c0-1.6-0.1-3.2-0.1-4.8v-0.2h0.2c3.6,0,7.3-0.1,10.9-0.1l10.9-0.1
	h0.4v0.4l0,9.5v0.4h-0.4c-1.8,0-3.7,0-5.5-0.1l-5.5-0.1L13.3,271.5z"/>
<path class="st6" d="M13.3,14.1l11-0.2l5.4-0.1c1.8,0,3.6,0,5.4,0l-0.4,0.4l0-9.5L35.2,5L24.3,4.9c-3.6,0-7.3-0.1-10.9-0.1l0.2-0.2
	c0,1.6-0.1,3.1-0.1,4.7L13.3,14.1z M13.3,14.1l-0.1-4.7c0-1.6-0.1-3.2-0.1-4.8V4.3h0.2c3.6,0,7.3-0.1,10.9-0.1l10.9-0.1h0.4v0.4
	l0,9.5v0.4h-0.4c-1.8,0-3.7,0-5.5,0l-5.5-0.1L13.3,14.1z"/>
<path class="st6" d="M1.2,26.1l11-0.2l5.4-0.1c1.8,0,3.6,0,5.4,0l-0.4,0.3v-9.5L23,17l-11-0.1c-3.6,0-7.3-0.1-10.9-0.1l0.2-0.2
	c0,1.6-0.1,3.1-0.1,4.7L1.2,26.1z M1.2,26.1l-0.1-4.7c0-1.6-0.1-3.2-0.1-4.8v-0.2h0.2c3.6,0,7.3-0.1,10.9-0.1L23,16.2h0.4v0.4
	l-0.1,9.5v0.4H23c-1.8,0-3.7,0-5.5,0L12,26.4L1.2,26.1z"/>
<path class="st7" d="M319.1,14.1l11-0.2l5.4-0.1c1.8,0,3.6,0,5.4-0.1l-0.4,0.4l0-9.5l0.4,0.4L330,4.9c-3.6,0-7.3-0.1-10.9-0.1
	l0.2-0.2c0,1.6-0.1,3.1-0.1,4.7L319.1,14.1z M319.1,14.1l-0.1-4.7c0-1.6-0.1-3.2-0.1-4.8V4.3h0.2c3.6,0,7.3-0.1,10.9-0.1l10.9-0.1
	h0.4v0.4l0,9.5v0.4h-0.4c-1.8,0-3.7,0-5.5,0l-5.5-0.1L319.1,14.1z"/>
<path class="st8" d="M176.6,118.1l-11,0.2l-5.4,0.1c-1.8,0-3.6,0-5.4,0l0.4-0.4l0,9.5l-0.4-0.4l10.9,0.1c3.6,0,7.3,0.1,10.9,0.1
	l-0.2,0.2c0-1.6,0.1-3.1,0.1-4.7L176.6,118.1z M176.6,118.1l0.1,4.7c0,1.6,0.1,3.2,0.1,4.8v0.2h-0.2c-3.6,0-7.3,0.1-10.9,0.1
	l-10.9,0.1h-0.4v-0.4l0-9.5v-0.4h0.4c1.8,0,3.7,0,5.5,0.1l5.5,0.1L176.6,118.1z"/>
<path class="st8" d="M164.4,106l-11,0.2l-5.4,0.1c-1.8,0-3.6,0-5.4,0l0.4-0.4v9.5l-0.4-0.4l10.9,0.1c3.6,0,7.3,0.1,10.9,0.1
	l-0.2,0.2c0-1.6,0.1-3.1,0.1-4.7L164.4,106z M164.4,106l0.1,4.7c0,1.6,0.1,3.2,0.1,4.8v0.2h-0.2c-3.6,0-7.3,0.1-10.9,0.1l-10.9,0.1
	h-0.4v-0.4l0.1-9.5v-0.4h0.4c1.8,0,3.7,0,5.5,0.1l5.5,0.1L164.4,106z"/>
<path class="st9" d="M228.1,444c108.7,0,196.7-9.1,196.7-20.3s-88.1-20.3-196.7-20.3c-108.7,0-196.7,9.1-196.7,20.3
	S119.4,444,228.1,444z"/>
<path class="st10" d="M10,332.1l66-0.2l66-0.1l132-0.1l132,0.1l66,0.1l66,0.2l-66,0.2l-66,0.1l-132,0.1l-132-0.1l-66-0.1L10,332.1z"
	/>
<path class="st11" d="M345.2,122.4L326.7,19.6l-17.1,102.7l-0.8-0.1l17.9-107.4L346,122.2L345.2,122.4z"/>
<path class="st11" d="M340.3,207.3l-13.4-50.7l-12.4,50.7l-0.8-0.2l13.1-53.9l14.2,53.9L340.3,207.3z"/>
<path class="st12" d="M328.4,16.4c0,0.3-0.1,0.7-0.3,1c-0.2,0.3-0.5,0.5-0.8,0.6c-0.3,0.1-0.7,0.2-1,0.1c-0.3-0.1-0.6-0.2-0.9-0.5
	c-0.2-0.2-0.4-0.6-0.5-0.9c-0.1-0.3,0-0.7,0.1-1c0.1-0.3,0.3-0.6,0.6-0.8c0.3-0.2,0.6-0.3,0.9-0.3c0.2,0,0.4,0,0.7,0.1
	c0.2,0.1,0.4,0.2,0.6,0.4c0.2,0.2,0.3,0.4,0.4,0.6C328.4,16,328.4,16.2,328.4,16.4z"/>
<path class="st13" d="M342.4,205.6l-0.5,7.1l-1.2,17h-26.4l-1.2-17l-0.5-7.1H342.4z"/>
<path class="st14" d="M342.4,205.6l-0.5,7.1H313l-0.5-7.1H342.4z"/>
<path class="st13" d="M344.2,203.3h-33.6v5.5h33.6V203.3z"/>
<path class="st15" d="M345.1,202.1c0,0.2-0.1,0.4-0.2,0.6c-0.1,0.2-0.2,0.4-0.4,0.5c-0.2,0.1-0.4,0.2-0.6,0.3
	c-0.2,0.1-0.4,0.1-0.6,0.1c-0.2,0.3-0.5,0.5-0.9,0.6s-0.7,0.1-1.1,0c-0.2,0.4-0.4,0.7-0.8,0.9c-0.3,0.2-0.7,0.3-1.1,0.3
	c0.1,0.5,0.1,1-0.1,1.5c-0.2,0.5-0.6,0.8-1,1c-0.1,0.3-0.2,0.5-0.5,0.7c-0.2,0.2-0.5,0.2-0.8,0.2c-0.3,0-0.6-0.2-0.9-0.4
	c-0.3-0.2-0.5-0.4-0.6-0.7c-0.1,0.2-0.3,0.3-0.5,0.4c-0.2,0.1-0.4,0.2-0.6,0.2c-0.2,0-0.4,0-0.6-0.1c-0.2-0.1-0.4-0.2-0.5-0.3
	c-0.2-0.2-0.3-0.4-0.3-0.7c0-0.3,0-0.5,0.1-0.8c-0.1-0.1-0.2-0.1-0.3-0.2c-0.2-0.2-0.4-0.5-0.5-0.8c-0.1-0.3-0.1-0.6-0.1-0.9
	c-0.4,0.2-0.9,0.2-1.4,0c0,0.2-0.2,0.4-0.3,0.6c-0.2,0.2-0.4,0.2-0.6,0.3c0.1,0.3,0.1,0.6,0,0.9c-0.1,0.3-0.2,0.6-0.4,0.8
	c-0.2,0.2-0.5,0.4-0.8,0.6c-0.3,0.1-0.6,0.2-0.9,0.1c0.2,0.9,0.2,2-0.6,2.6c-0.2,0.1-0.4,0.2-0.7,0.3s-0.5,0-0.7-0.1
	c0,0.2-0.1,0.5-0.3,0.7c-0.1,0.2-0.3,0.4-0.5,0.5c-0.2,0.1-0.4,0.2-0.7,0.3s-0.5,0-0.7,0c0.1,0.6,0.1,1.2-0.2,1.7
	c-0.1,0.2-0.3,0.4-0.5,0.5c-0.2,0.1-0.4,0.2-0.7,0.2c0,0.9-0.4,1.9-1.4,1.9c-0.2,0-0.3,0-0.4-0.1c-0.1-0.1-0.3-0.2-0.3-0.3
	c-0.1-0.1-0.2-0.3-0.2-0.4c0-0.2,0-0.3,0-0.5c-0.2-0.1-0.4-0.2-0.6-0.3c-0.2-0.2-0.3-0.4-0.4-0.6c-0.1-0.2-0.1-0.5,0-0.7
	c0.1-0.2,0.2-0.4,0.3-0.6c-0.2-0.2-0.4-0.4-0.5-0.7c-0.1-0.3-0.2-0.6-0.2-0.9c0-0.3,0.1-0.6,0.2-0.9c0.1-0.3,0.3-0.5,0.5-0.7
	c-0.1-0.1-0.2-0.3-0.3-0.4c-0.1-0.2-0.1-0.3-0.1-0.5c0-0.2,0-0.4,0.1-0.5c0.1-0.2,0.2-0.3,0.3-0.4c-0.2-0.2-0.3-0.4-0.5-0.6
	c-0.1-0.2-0.2-0.5-0.2-0.8c0-0.3,0.1-0.6,0.3-0.9c0.2-0.3,0.4-0.5,0.7-0.6c-0.1,0-0.2-0.1-0.3-0.2s-0.1-0.2-0.2-0.3c0,0,0-0.1,0-0.1
	c-0.2,0.1-0.3,0.1-0.5,0.1c-0.2,0-0.3,0-0.5-0.1c-0.2-0.1-0.4-0.3-0.5-0.5c-0.3,0.2-0.6,0.4-0.9,0.5c-0.3,0.1-0.7,0.1-1,0
	c-0.1,0.2-0.3,0.4-0.5,0.6c-0.2,0.1-0.4,0.3-0.7,0.3c-0.2,0.1-0.5,0-0.7,0c-0.2-0.1-0.5-0.2-0.6-0.3c-0.6,0.6-1.4,1.1-2.2,0.6
	c-0.1-0.1-0.3-0.2-0.3-0.4c-0.1-0.2-0.1-0.3-0.1-0.5c-0.2,0-0.4-0.1-0.6-0.2c-0.2-0.1-0.3-0.3-0.4-0.5c-0.1-0.2-0.1-0.5-0.1-0.7
	c0.1-0.2,0.2-0.5,0.4-0.6c-0.2-0.1-0.3-0.4-0.4-0.6c0-0.2,0-0.3,0-0.5c0-0.2,0.1-0.3,0.2-0.4c0.1-0.1,0.2-0.2,0.4-0.3
	c0.1-0.1,0.3-0.1,0.5-0.1c-0.1-0.3-0.1-0.6-0.1-0.9c0.1-0.3,0.2-0.6,0.4-0.8c0.2-0.3,0.5-0.4,0.9-0.6c0.3-0.1,0.7-0.2,1-0.1
	c-0.1-0.4,0-0.9,0.2-1.3c0.2-0.4,0.5-0.7,0.8-0.9c0.3-0.2,0.7-0.2,1.1-0.1c0.4,0.1,0.7,0.3,0.9,0.6c0.2-0.4,0.5-0.6,0.9-0.9
	c0.4-0.2,0.8-0.3,1.2-0.4c0.4,0,0.8,0,1.2,0.2c0.4,0.2,0.7,0.4,1,0.7c0.1-0.3,0.4-0.5,0.7-0.7c0.3-0.1,0.6-0.1,1,0
	c0.4,0.2,0.7,0.5,1,0.9s0.3,0.9,0.3,1.3c0.4-0.2,0.9-0.3,1.3-0.3c0.5,0,0.9,0.2,1.3,0.5c0.3,0.3,0.6,0.6,0.8,1
	c0.2,0.4,0.3,0.8,0.2,1.3c0.4-0.2,0.8-0.3,1.3-0.3c0.4,0,0.9,0.2,1.2,0.4c0.6-1,1.6-1.7,2.6-2.1c0.4-0.1,0.8-0.1,1.1,0
	c0.4,0.1,0.7,0.3,1,0.5c0.2-0.6,0.5-1.1,0.9-1.5s1-0.6,1.5-0.7c0.6-0.1,1.1,0,1.7,0.3c0.5,0.3,0.9,0.7,1.2,1.2
	c0.3-0.3,0.7-0.4,1-0.5c0.4-0.1,0.8,0,1.1,0.2c0.5,0.3,0.9,0.6,1.2,1.1c0.3,0.4,0.6,0.9,0.7,1.5c0.2,0,0.4,0,0.6,0.1
	c0.2,0.1,0.4,0.2,0.5,0.4c0.1,0.2,0.3,0.3,0.3,0.6C345.1,201.7,345.1,201.9,345.1,202.1z"/>
<path class="st16" d="M347.5,122.7l-0.7,9.5l-1.7,22.7h-35.3l-1.7-22.7l-0.7-9.5H347.5z"/>
<path class="st14" d="M347.5,122.7l-0.7,9.5h-38.7l-0.7-9.5H347.5z"/>
<path class="st16" d="M349.9,119.6H305v7.4h44.9V119.6z"/>
<path class="st17" d="M348.9,121.5c0.3,0.3,0.5,0.8,0.6,1.2c0.1,0.4,0.1,0.9,0,1.4c-0.3,0.6-0.7,1.1-1.1,1.6c-0.5,0.4-1,0.8-1.6,1
	c0.2,0.3,0.4,0.8,0.5,1.2c0.1,0.4,0.1,0.9,0,1.3c-0.1,0.4-0.3,0.8-0.5,1.2c-0.3,0.3-0.6,0.6-0.9,0.8c1.1,1.3,1.5,2.8,0.1,3.7
	c0.2,0.4,0.4,0.8,0.5,1.2c0.1,0.4,0.1,0.9,0,1.3c-0.1,0.4-0.3,0.9-0.5,1.2c-0.3,0.4-0.6,0.7-1,0.9c0.3,1-0.7,4.1-2.7,4.1
	c-0.4,0-0.7-0.1-1.1-0.3c-0.3-0.2-0.6-0.5-0.8-0.8c-0.2-0.3-0.3-0.7-0.3-1.1c0-0.4,0.1-0.8,0.3-1.1c-0.3-0.2-0.6-0.5-0.9-0.8
	c-0.2-0.3-0.4-0.7-0.4-1.1c-0.1-0.4,0-0.8,0.1-1.2c0.1-0.4,0.3-0.7,0.6-1c0,0-1.3,0.3-1.9-0.4c-0.2-0.3-0.3-0.6-0.3-0.9
	c0-0.3,0-0.6,0.2-0.9c-0.2-0.3-0.4-0.7-0.5-1.1c-0.1-0.4-0.1-0.8-0.1-1.2c0.1-0.4,0.2-0.8,0.4-1.1c0.2-0.3,0.5-0.6,0.8-0.9
	c-0.3-0.2-0.5-0.5-0.6-0.8c-0.1-0.3-0.2-0.7-0.2-1c0-0.3,0.1-0.7,0.2-1c0.1-0.3,0.3-0.6,0.6-0.8c-0.6-0.3-1.1-0.7-1.4-1.2
	c-1,0.5-1.6,0.1-2.2-0.9c-0.3,0.4-0.7,0.6-1.2,0.8c-0.5,0.1-0.9,0.1-1.4-0.1c-0.1,0.4-0.3,0.8-0.6,1.1c-0.3,0.3-0.6,0.6-1,0.7
	c-0.4,0.2-0.8,0.2-1.3,0.2c-0.4,0-0.8-0.2-1.2-0.4c0,0.8-0.3,1.5-0.8,2.2c-0.1,0.2-0.3,0.4-0.5,0.5c-0.2,0.2-0.3,0.5-0.5,0.8
	c-0.2,0.4-0.5,0.8-0.9,1.1c-0.3,0.3-0.8,0.4-1.2,0.4c-0.4,0-0.8-0.2-1.1-0.5c-0.2-0.2-0.3-0.4-0.3-0.7c0-0.3,0-0.5,0.1-0.7
	c-0.4-0.2-0.8-0.5-1-0.9c-0.2-0.4-0.2-0.9-0.1-1.4c-0.4,0-0.9-0.1-1.3-0.3c-0.4-0.2-0.7-0.6-0.9-1c-0.2,0.3-0.5,0.5-0.8,0.7
	c-0.3,0.2-0.6,0.2-1,0.3c0.2,0.7,0.2,1.4-0.1,2c-0.3,0.6-0.8,1.1-1.4,1.4c0.2,0.3,0.3,0.7,0.4,1.1c0,0.4,0,0.8-0.1,1.1
	c-0.1,0.4-0.3,0.7-0.5,1c-0.2,0.3-0.5,0.5-0.9,0.7c0.2,0.4,0.3,0.9,0.2,1.4c-0.1,0.5-0.4,0.9-0.8,1.2c0.1,0.4,0.2,0.7,0.2,1.1
	c0,0.4-0.1,0.8-0.3,1.1c-0.2,0.2-0.4,0.4-0.6,0.6c-0.3,0.1-0.5,0.2-0.8,0.1c-0.2,0-0.3-0.1-0.5-0.3c-0.1-0.1-0.2-0.3-0.3-0.4
	c-0.1-0.2-0.1-0.4-0.1-0.5c0-0.2,0.1-0.4,0.2-0.5c-0.5-0.2-0.9-0.5-1.2-0.8c-0.3-0.4-0.5-0.8-0.6-1.3c-0.1-0.5-0.1-1,0-1.5
	c0.1-0.5,0.4-0.9,0.7-1.3c-0.4-0.1-0.7-0.3-1-0.5c-0.3-0.3-0.5-0.6-0.6-0.9c-0.1-0.4-0.2-0.8-0.1-1.1c0-0.4,0.2-0.8,0.4-1.1
	c-0.5-0.1-0.9-0.4-1.2-0.7c-0.3-0.3-0.6-0.8-0.7-1.3c-0.1-0.3,0-0.7,0.1-1c0.1-0.3,0.2-0.7,0.5-0.9c-0.2,0-0.5,0-0.7-0.1
	c-0.2-0.1-0.4-0.2-0.6-0.4c-0.2-0.2-0.3-0.5-0.3-0.9c-0.4,0.1-0.8,0.1-1.1-0.1c-0.4-0.2-0.7-0.4-0.9-0.8c-0.2-0.4-0.2-0.7-0.2-1.1
	c0.1-0.4,0.2-0.7,0.5-1c-0.2-0.1-0.5-0.2-0.6-0.4s-0.3-0.4-0.4-0.7c-0.1-0.3,0-0.7,0.1-0.9c-0.2,0.1-0.5,0.1-0.7,0
	c-0.2-0.1-0.5-0.2-0.7-0.3c-0.2-0.1-0.4-0.3-0.5-0.5c-0.1-0.2-0.2-0.5-0.2-0.7c0-0.3,0-0.7,0.2-0.9c0.2-0.3,0.4-0.5,0.7-0.6
	c-0.2-0.4-0.2-0.8-0.1-1.2c0.3-1.1,1.5-1.5,2.5-1.6c-0.1-0.4-0.2-0.8-0.1-1.2c0.1-0.4,0.2-0.8,0.5-1.1c0.2-0.3,0.6-0.5,0.9-0.7
	c0.4-0.1,0.8-0.2,1.1-0.1c0-0.4,0-0.9,0.2-1.3c0.2-0.4,0.5-0.7,0.8-1c0.4-0.2,0.8-0.3,1.2-0.3c0.4,0,0.8,0.2,1.2,0.5h0.1
	c0.6,0.1,1.2,0.4,1.6,0.9s0.7,1.1,0.7,1.8c0.4-0.2,0.9-0.3,1.3-0.3c0.5,0,0.9,0.1,1.3,0.3c0.5,0.3,0.9,0.7,1.2,1.2
	c0.3,0.5,0.5,1,0.6,1.6c0.3-0.4,0.8-0.7,1.2-0.8c0.5-0.2,1-0.2,1.5-0.2c0.5,0.1,1,0.3,1.4,0.5c0.4,0.3,0.8,0.7,1,1.1
	c0.4-0.4,0.9-0.7,1.4-0.9c0.5-0.1,1.1-0.1,1.6,0.1c0.5,0.2,1,0.5,1.4,1c0.4,0.4,0.6,1,0.6,1.6c0.9-0.8,2-1.3,3.2-1.6
	c1.2-0.2,2.4-0.2,3.6,0.2c0.2-0.5,0.4-0.9,0.8-1.3c0.4-0.3,0.8-0.6,1.2-0.8c0.5-0.2,1-0.2,1.4-0.1c0.5,0.1,0.9,0.3,1.3,0.6
	c0.3-0.7,0.7-1.2,1.3-1.6c0.6-0.4,1.3-0.5,2-0.4c0.8,0.2,1.6,0.5,2.2,1.1c0.6,0.5,1.1,1.2,1.4,2c0.5,0,1,0.2,1.4,0.4
	c0.4,0.3,0.8,0.6,1.1,1c0.3,0.4,0.5,0.9,0.5,1.4c0.1,0.5,0,1-0.1,1.5c0.1,0.3,0.2,0.6,0.2,1c0,0.3-0.1,0.7-0.2,1
	c-0.1,0.3-0.3,0.6-0.6,0.8C349.4,121.2,349.2,121.4,348.9,121.5z"/>
<path class="st18" d="M511.7,12.9H378.4v319.2h133.3V12.9z"/>
<path class="st12" d="M511.7,297.3H378.4v34.8h133.3V297.3z"/>
<path class="st19" d="M385.4,12.9h-7v319.2h7V12.9z"/>
<path class="st20" d="M461.3,315.5l-75.9,16.5V12.9l75.9,23.3V315.5z"/>
<path class="st12" d="M395.8,235.6c0.1,3,0.1,6,0.2,9c0.1,3,0.1,6,0.1,9c0.1,6,0.1,12.1,0.2,18.1c0,6,0,12.1,0,18.1
	c0,6,0,12.1-0.1,18.1l-0.5-0.8c3-0.5,6.1-0.9,9.1-1.4l4.6-0.6c1.5-0.2,3-0.4,4.6-0.5c-1.5,0.4-3,0.8-4.6,1.1l-4.6,1.1
	c-3,0.7-6.1,1.3-9.1,2l-0.5,0.1v-0.9c0-6,0-12.1-0.1-18.1c0-6,0-12.1,0-18.2c0-6.1,0.1-12.1,0.1-18.2c0-3,0.1-6.1,0.1-9.1
	C395.7,241.6,395.8,238.6,395.8,235.6z"/>
<path class="st12" d="M418.8,297.3c-0.1-3.3-0.1-6.7-0.2-10c-0.1-3.3-0.1-6.7-0.1-10c-0.1-6.7-0.1-13.4-0.2-20.1
	c0-6.7,0-13.4-0.1-20.1c-0.1-6.7,0-13.4,0-20.1l0.5,0.8c-3.8,0.1-7.5,0.1-11.3,0.1c-1.9,0-3.8,0-5.7-0.1c-1.9,0-3.8-0.1-5.7-0.1
	c1.9-0.2,3.8-0.4,5.7-0.5c1.9-0.1,3.8-0.3,5.7-0.4c3.8-0.3,7.5-0.5,11.3-0.6h0.5v0.9c0,6.7,0,13.4,0.1,20.1c0,6.7,0,13.4,0,20.1
	c0,6.7-0.1,13.4-0.1,20.1c0,3.3-0.1,6.7-0.1,10.1C418.9,290.6,418.8,293.9,418.8,297.3z"/>
<path class="st12" d="M427.8,233.6c0.1,2.8,0.1,5.7,0.2,8.5c0.1,2.8,0.1,5.7,0.1,8.6c0.1,5.7,0.1,11.4,0.2,17.1
	c0,5.7,0,11.4,0.1,17.1c0.1,5.7,0,11.4,0,17.2l-0.5-0.7c3-0.5,6.1-1,9.1-1.4l4.6-0.6c1.5-0.2,3-0.4,4.6-0.5c-1.5,0.4-3,0.8-4.6,1.1
	l-4.6,1.1c-3,0.7-6.1,1.3-9.1,1.9l-0.5,0.1v-0.8c0-5.7-0.1-11.4-0.1-17.2c0-5.7,0-11.5,0-17.2c0-5.7,0.1-11.5,0.1-17.2
	c0-2.8,0.1-5.7,0.1-8.6C427.7,239.3,427.8,236.5,427.8,233.6z"/>
<path class="st12" d="M450.8,291.8c-0.1-3.1-0.1-6.3-0.2-9.5c0-3.2-0.1-6.3-0.1-9.5c-0.1-6.3-0.1-12.6-0.2-19c0-6.3,0-12.7-0.1-19
	c0-6.3,0-12.7,0-19l0.5,0.8c-3.8,0.1-7.5,0.1-11.3,0.1c-1.9,0-3.8,0-5.7-0.1c-1.9-0.1-3.8-0.1-5.7-0.1c1.9-0.2,3.8-0.3,5.7-0.5
	c1.9-0.1,3.8-0.3,5.7-0.4c3.8-0.2,7.5-0.4,11.3-0.6h0.5v0.8c0,6.3,0,12.6,0.1,18.9c0,6.3,0,12.6,0,19s-0.1,12.6-0.1,19
	c0,3.2-0.1,6.3-0.1,9.5C450.9,285.5,450.9,288.7,450.8,291.8z"/>
<path class="st12" d="M395.8,91.8c0.1,3,0.1,6.1,0.2,9.1c0,3,0.1,6.1,0.1,9.1c0.1,6,0.1,12.1,0.2,18.1c0,6,0,12.1,0,18.1
	c0,6,0,12.1-0.1,18.1l-0.5-0.9c3,0.2,6.1,0.5,9.1,0.9l4.5,0.5c1.5,0.2,3,0.3,4.6,0.6c-1.5,0-3,0-4.6,0h-4.5c-3,0-6.1-0.1-9.1-0.2
	h-0.4v-0.9c0-6.1-0.1-12.1-0.1-18.2c0-6,0-12.1,0-18.1c0-6,0.1-12.1,0.2-18.1c0-3,0.1-6,0.1-9C395.7,97.8,395.7,94.8,395.8,91.8z"/>
<path class="st12" d="M418.7,159c-0.1-3.4-0.1-6.7-0.2-10.1s-0.1-6.7-0.1-10.1c-0.1-6.7-0.1-13.4-0.2-20.1c0-6.7,0-13.4-0.1-20.1
	c0-6.7,0-13.4,0-20.1l0.5,0.9c-3.8-0.9-7.5-1.7-11.3-2.6c-1.9-0.5-3.8-0.9-5.6-1.4c-1.9-0.5-3.8-1-5.6-1.5c1.9,0.3,3.8,0.6,5.6,0.9
	c1.9,0.3,3.8,0.6,5.6,1c3.8,0.7,7.5,1.4,11.3,2.1l0.5,0.1v0.9c0,6.7,0,13.4,0.1,20.1c0,6.7,0,13.4,0,20.1s-0.1,13.4-0.1,20.1
	c0,3.3-0.1,6.7-0.1,10C418.8,152.4,418.8,155.7,418.7,159z"/>
<path class="st12" d="M427.7,97.6c0.1,2.9,0.1,5.7,0.2,8.6c0.1,2.9,0.1,5.7,0.1,8.6c0.1,5.7,0.1,11.4,0.2,17.2
	c0,5.7,0,11.4,0.1,17.1c0,5.7,0,11.4-0.1,17.1l-0.5-0.8c3,0.2,6.1,0.5,9.1,0.8l4.5,0.5c1.5,0.2,3,0.3,4.6,0.5c-1.5,0-3,0-4.6,0
	l-4.5,0c-3,0-6.1-0.1-9.1-0.3h-0.4v-0.8c0-5.7-0.1-11.4-0.1-17.2c0-5.7,0-11.4,0-17.2c0-5.7,0.1-11.4,0.1-17.2
	c0-2.8,0.1-5.7,0.1-8.5C427.6,103.3,427.7,100.4,427.7,97.6z"/>
<path class="st12" d="M450.7,161.3c-0.1-3.2-0.1-6.3-0.2-9.5c-0.1-3.2-0.1-6.3-0.1-9.5c-0.1-6.3-0.1-12.7-0.2-19
	c0-6.3,0-12.7-0.1-19c0-6.3,0-12.7,0-19l0.5,0.9c-3.8-0.8-7.5-1.7-11.3-2.6c-1.9-0.4-3.8-0.9-5.6-1.4c-1.9-0.5-3.8-1-5.6-1.5
	c1.9,0.3,3.8,0.6,5.6,0.9c1.9,0.3,3.8,0.6,5.6,1c3.8,0.7,7.5,1.4,11.3,2.1l0.5,0.1v0.8c0,6.3,0,12.6,0.1,19c0,6.3,0,12.6,0,18.9
	c0,6.3-0.1,12.6-0.1,18.9c0,3.2-0.1,6.3-0.1,9.5C450.8,155,450.7,158.1,450.7,161.3z"/>
<path class="st12" d="M395.8,38.8c0.2,3.2,0.3,6.3,0.3,9.5c0.1,3.2,0.1,6.3,0.2,9.4l-0.5-1c1.5,0.3,3,0.7,4.5,1
	c1.5,0.4,3,0.8,4.5,1.2c1.5,0.4,3,0.9,4.5,1.4c1.5,0.5,3,1,4.5,1.6c-1.5-0.1-3-0.3-4.5-0.5c-1.5-0.2-3-0.5-4.5-0.8
	c-1.5-0.3-3-0.6-4.5-1c-1.5-0.3-3-0.7-4.5-1.1l-0.5-0.1v-0.9c0-3.1,0.1-6.3,0.1-9.4C395.5,45,395.7,41.9,395.8,38.8z"/>
<path class="st12" d="M418.7,61.3c-0.1-1.8-0.1-3.5-0.2-5.3c0-1.7-0.1-3.5-0.1-5.2c-0.1-3.5-0.1-7-0.2-10.5l0.5,1
	c-1.9-0.4-3.8-1-5.6-1.5c-1.9-0.5-3.8-1.1-5.6-1.7c-1.9-0.6-3.8-1.2-5.6-1.8c-0.9-0.3-1.9-0.7-2.8-1c-0.9-0.4-1.9-0.7-2.8-1.1
	c0.9,0.1,1.9,0.3,2.8,0.5c0.9,0.2,1.9,0.3,2.8,0.5c1.9,0.4,3.8,0.9,5.6,1.3c1.9,0.4,3.8,1,5.6,1.5c1.9,0.5,3.8,1.1,5.6,1.7l0.5,0.1
	v0.9c0,3.5,0,6.9-0.1,10.4c0,1.7-0.1,3.4-0.1,5.2C418.8,57.8,418.7,59.6,418.7,61.3z"/>
<path class="st12" d="M427.7,47.4c0.2,3,0.3,6,0.3,9c0.1,3,0.1,6,0.2,8.9l-0.5-1c1.5,0.3,3,0.7,4.5,1c1.5,0.4,3,0.8,4.5,1.2
	s3,0.9,4.5,1.3c1.5,0.5,3,1,4.5,1.6c-1.5-0.1-3-0.3-4.5-0.6c-1.5-0.2-3-0.5-4.5-0.9c-1.5-0.3-3-0.6-4.5-1c-1.5-0.3-3-0.7-4.5-1.1
	l-0.5-0.1V65c0-3,0.1-5.9,0.1-8.9C427.5,53.2,427.6,50.3,427.7,47.4z"/>
<path class="st12" d="M450.6,69c-0.1-1.7-0.1-3.3-0.2-5c0-1.7-0.1-3.3-0.1-5c-0.1-3.3-0.1-6.6-0.2-9.9l0.5,0.9
	c-1.9-0.5-3.8-1-5.6-1.5c-1.9-0.5-3.8-1.1-5.6-1.6c-1.9-0.6-3.8-1.2-5.6-1.8c-0.9-0.3-1.9-0.7-2.8-1s-1.9-0.7-2.8-1.1
	c0.9,0.1,1.9,0.3,2.8,0.5c0.9,0.2,1.9,0.3,2.8,0.6c1.9,0.4,3.8,0.9,5.6,1.3c1.9,0.5,3.8,1,5.6,1.5c1.9,0.5,3.8,1.1,5.6,1.6l0.5,0.2
	v0.8c0,3.3,0,6.5-0.1,9.8c0,1.6-0.1,3.3-0.1,4.9C450.7,65.7,450.6,67.4,450.6,69z"/>
<path class="st21" d="M441.1,176.5l0,30.3l9.6-0.1l0-29.7L441.1,176.5z"/>
<path class="st22" d="M443.4,183.2v6.8l7.3-0.9l0-5.8L443.4,183.2z"/>
<path class="st23" d="M443.4,179.8v6.8l12.7,0.3l0-6.7L443.4,179.8z"/>
<path class="st10" d="M523.7,0v332.1h-11.9V12.9H378.4v319.2h-11.9V0H523.7z"/>
<path class="st24" d="M446.9,326.1c1.6,0.5,50.2-2.1,51.9-3.4c0.2-0.1,0.1-4.7-0.2-10.9l1-37.1L469,276l-1.3,32.1
	c0,0-6.8,3.6-12.4,6.6c-2.4,1.3-4.8,2.7-7.1,4.3C446.4,320.6,445.2,325.6,446.9,326.1z"/>
<path class="st25" d="M446.9,326.1c1.6,0.5,50.2-2.1,51.9-3.4c0.2-0.1,0.1-4.7-0.2-10.9c-11.9,3.2-43.7,8.9-44.8,6.4
	c-0.4-1,0.3-2.2,1.4-3.4c-2.4,1.3-4.8,2.7-7.1,4.3C446.4,320.6,445.2,325.6,446.9,326.1z"/>
<path class="st26" d="M507.8,139.6c0,0-7.7,95.9-7.8,97.1c0,0.2,1.5,69.8,1.5,69.8l-34,1.4c0,0,1.1-60.9,1.9-74.5
	c1.1-17.4,7.4-92.5,7.4-92.5L507.8,139.6z"/>
<path class="st10" d="M469.4,300.1c8.8-0.7,29.1-1,30.2-1c0.3,0,0.1,0.3,0.1,0.3c-2.8,0.4-22.1,1.1-30.3,1
	C469.3,300.5,469.3,300.1,469.4,300.1z"/>
<path class="st10" d="M500,236.7c0,0,0,0.3,0,0.8l-16.6-96.9l24.5-0.9C507.8,139.6,500.1,235.5,500,236.7z"/>
<path class="st24" d="M511.7,274.3l-0.1-0.3l0.1,0V274.3z"/>
<path class="st24" d="M511.9,316.5c0,0.1-0.1,0.2-0.1,0.4v11.9c-1.1,0.6-2.2,1-3.4,1.4c-1.7,0.2-2.5-4.9-1.4-7.1
	c1.5-2.3,3.1-4.5,4.8-6.6L511.9,316.5z"/>
<path class="st25" d="M511.7,316.9c-0.5,1.3-0.6,2.5,0,3.2v8.8c-1.1,0.6-2.2,1-3.4,1.4c-1.7,0.2-2.5-4.9-1.4-7.1
	c1.5-2.3,3.1-4.5,4.8-6.6l0.1-0.2C511.8,316.7,511.8,316.8,511.7,316.9z"/>
<path class="st26" d="M511.7,139.5v143.8c-4.2-15.5-9.4-35.7-11.7-47.3c-0.5-2.5-0.8-4.5-1.1-6.1c-1.9-14.6-4.2-44.6-5.6-66.3
	c0,0-4-2.6-6.9-4.7c-0.9-0.6-1.8-1.4-2.5-2.2l-0.1-0.1c-1.3-1.5-2.7-6.9-5-12.6c-0.1-0.3-0.2-0.5-0.3-0.8c-0.1-0.3-0.2-0.5-0.3-0.7
	c-0.1-0.2-0.3-0.7-0.5-1.1c-0.1-0.2-0.2-0.4-0.3-0.6l3.5-0.1l2.4-0.1l24.5-0.9l1.5-0.1L511.7,139.5z"/>
<path class="st10" d="M483,156.2c2.1,1,4.1,2.1,6,3.5c2,1.4,3.8,2.9,5.7,4.4c0.1,0.1,0,0.2-0.1,0.1c-2-1.3-4.1-2.4-6.1-3.7
	c-2-1.2-3.9-2.6-5.6-4.2C482.8,156.3,482.9,156.2,483,156.2z"/>
<path class="st10" d="M482.6,143.5c0.3,1.4,0.6,2.8,0.9,4.2c0.3,1.4,0.5,2.6,0.8,3.9c0.3,1.2,0.9,2.4,1.8,3.3
	c0.5,0.5,1.1,0.9,1.6,1.3c0.3,0.2,0.6,0.5,0.9,0.7c0-0.2-0.1-0.4-0.1-0.6c-0.1-0.5-0.2-1.1-0.3-1.6c-0.2-1.2-0.4-2.4-0.6-3.5
	c-0.4-2.3-0.7-4.7-1.2-7c0,0,0,0,0,0c0,0,0,0,0,0c0,0,0,0,0,0c0,0,0,0,0,0c0.6,2.3,1.2,4.5,1.8,6.8c0.2,1.1,1.2,6.7,1.2,7.1
	c0,0.4,0.1,0.9,0.1,1.2c0,0.4,0,0.8,0,1.3c0,0,0,0,0,0c0,0,0,0-0.1,0c0,0,0,0-0.1,0s0,0,0,0c-0.2-0.4-0.3-0.8-0.4-1.2
	c-0.1-0.4-0.2-0.8-0.3-1.2c0-0.2,0-0.3-0.1-0.5c-0.5-0.3-1-0.8-1.5-1.1c-0.5-0.4-1.1-0.8-1.6-1.2c-0.9-0.8-1.6-1.9-2-3.1
	c-0.3-1.3-0.6-2.6-0.7-4c-0.2-1.6-0.3-3.2-0.6-4.8C482.4,143.5,482.5,143.4,482.6,143.5z"/>
<path class="st10" d="M511.7,95.8v10l-1.4-0.1c-0.1-0.2-0.2-0.5-0.3-0.7l-0.2-0.7c-0.1-0.3-0.2-0.7-0.3-1.1
	c-0.1-0.2-0.1-0.5-0.2-0.7c-0.1-0.3-0.2-0.7-0.3-1.1c-0.1-0.2-0.1-0.5-0.2-0.7c0-0.2-0.2-0.7-0.2-1.1c0-0.2-0.1-0.5-0.1-0.7
	c0-0.2-0.1-0.7-0.2-1.1l-0.1-0.7c0-0.4-0.1-0.7-0.1-1.1c0-0.2,0-0.5-0.1-0.7c-0.1-0.2,0-0.7-0.1-1.1c0-0.4,0-0.5,0-0.7
	c0,0.1-0.1,0.3-0.1,0.7c-0.1,0.4-0.1,0.7-0.2,1.1c0,0.2-0.1,0.5-0.1,0.7c0,0.3-0.1,0.7-0.2,1.1c0,0.2-0.1,0.5-0.1,0.7
	c0,0.3-0.1,0.7-0.2,1.1l-0.1,0.7c-0.1,0.4-0.1,0.7-0.2,1.1l-0.1,0.7l-0.1,1.1c0,0.2-0.1,0.5-0.1,0.7c0,0.4-0.1,0.7-0.1,1.1
	c0,0.3,0,0.5,0,0.7c0,0.1,0,0.2,0,0.3l-0.5-0.1l-0.5-0.1l-0.4-0.1h-0.2l-1.2-0.1h-0.1c0-0.2-0.1-0.5-0.1-0.7c0-0.2-0.1-0.7-0.2-1.1
	l-0.1-0.7c0-0.3-0.1-0.7-0.1-1.1c0-0.2,0-0.5-0.1-0.7c0-0.2,0-0.6,0-1c0,0,0-0.1,0-0.1c0,0,0-0.1,0-0.1v0.1c0,0.2-0.1,0.6-0.2,1.1
	c0,0.2-0.1,0.5-0.1,0.7c0,0.3-0.1,0.7-0.2,1.1c0,0.2-0.1,0.5-0.1,0.7s-0.1,0.7-0.2,1.1l-0.1,0.5l-4.6-0.5l-3.6-0.4l-1-0.1l-4.4-0.5
	l-5.9-0.7l-1.5-0.2c0.1-0.3,0.1-0.6,0.2-0.9c0-0.3,0.1-0.5,0.1-0.7c0-0.2,0.1-0.7,0.1-1.1c0-0.4,0.1-0.5,0.1-0.7
	c0-0.4,0.1-0.7,0.1-1.1c0-0.2,0-0.3,0-0.5v-0.2c0-0.1,0-0.1,0-0.2c0,0,0,0,0,0v-0.1c0-0.3,0-0.7,0-1c-0.1-3-0.6-4.7-0.6-4.2
	c0,2.3-0.3,4.6-1,6.8c-0.4,1.3-1,2.5-1.7,3.6H478l-5.2-0.7c-1.1-0.1,3.6-3.4,3.7-7c0.1-3.6-1.9-7.4,0.2-12.6
	c0.6-1.4,1.3-2.8,2.1-4.1c1.4-2.3,2.7-3.9,3.7-6.9v-0.1c0.1-0.4,0.2-0.7,0.2-1.1c0.3-2.6,0-7.7,1.2-12.3c0.1-0.5,0.3-1,0.4-1.4
	c0.2-0.8,0.5-1.5,0.9-2.2c0.6-1.3,1.4-2.4,2.5-3.4c1.1-0.9,2.3-1.6,3.6-2h0.1c2.3-0.7,4.7-0.7,7,0c2.3,0.7,4.3,2,5.8,3.9
	c6.1,2.6,4.6,11.9,4,17.1c-0.1,0.6-0.1,1.1,0,1.7c0.2,2.2,1.5,4,2.9,5.9v0l0.7,1L511.7,95.8C511.7,95.7,511.7,95.8,511.7,95.8z"/>
<path class="st10" d="M511.7,76v1.4l-0.3-0.3l-0.4-0.5v0c-1-1.1-1.9-2.3-2.6-3.7c-0.8-1.6-1.1-3.4-0.8-5.1c0,1,0.2,2,0.5,2.9
	c0.2,0.7,0.5,1.3,0.9,1.9C509.7,73.9,510.7,75,511.7,76z"/>
<path class="st10" d="M485,53.4c-0.9,1.9-1.5,3.9-1.9,6c-0.5,2.1-0.8,4.2-1.1,6.2l-0.5,3.1c-0.2,1-0.4,2-0.7,2.9
	c-0.8,1.9-1.9,3.6-3.2,5.1c-0.7,0.8-1.3,1.7-1.9,2.6c-0.6,0.9-1,1.9-1.4,3c-0.3,1-0.6,2.1-0.7,3.2c-0.2,1.1-0.2,2.2-0.1,3.3
	c0.1,1.1,0.3,2.1,0.4,3.2c0.2,1,0.2,2,0.2,3.1c-0.1,1-0.4,2-0.9,2.9c-0.5,0.9-1.2,1.6-2.1,2.2c1-0.5,1.8-1.2,2.4-2
	c0.6-0.9,1-1.9,1.2-3c0.1-1.1,0.1-2.2,0-3.2c-0.1-1.1-0.2-2.1-0.2-3.1c0-2,0.3-4.1,1-6c0.3-0.9,0.8-1.8,1.3-2.7
	c0.5-0.9,1.2-1.7,1.8-2.4c0.7-0.8,1.3-1.7,1.9-2.6c0.6-0.9,1.1-1.9,1.5-2.9c0.3-1,0.6-2.1,0.7-3.2c0.2-1.1,0.3-2.1,0.4-3.1
	c0.2-2.1,0.5-4.2,0.8-6.3C483.9,57.4,484.4,55.4,485,53.4z"/>
<path class="st24" d="M495.9,88.1c-2,11.6-5.6,30.5-12.5,39.7c-3.8,5.1-11.7,12.1-22.1,14.4v-25c0.7-0.4,8.6-3.5,11.5-6.2
	c2.4-2.3,6.3-12,16.2-24.6C493.4,80.9,496.9,82.4,495.9,88.1z"/>
<path class="st25" d="M476.4,104.5L492,112c0,0,3.2-12.9,4.3-22.1c1.2-9.6-3.3-10.3-9.8-1.3C482.8,93.7,479.4,99,476.4,104.5z"/>
<path class="st10" d="M492.4,107.9c-2.1-1.3-9.1-4.1-10.2-4.6c-0.6-0.3-3-1.2-3.6-1.4c-0.1,0-0.1,0.1,0,0.1c1.1,0.5,2.2,1.1,3.4,1.6
	C483.1,104.1,490,107.3,492.4,107.9C492.4,108,492.5,107.9,492.4,107.9z"/>
<path class="st14" d="M475.4,142.5l-0.1,0.7h36.4v-0.7H475.4z M475.7,140.6l-0.1,0.7h36.2v-0.7H475.7z M475.9,138.8l-0.1,0.7h35.9
	v-0.7H475.9z M476.2,137l-0.1,0.7h35.7V137L476.2,137z M476.4,135.2l-0.1,0.7h35.4v-0.7H476.4z M476.7,133.3l-0.1,0.7h35.2v-0.7
	H476.7z M476.9,131.5l-0.1,0.7h34.9v-0.7H476.9z M477.2,129.7l-0.1,0.7h34.6v-0.7H477.2z M477.5,127.9l-0.1,0.7h34.4v-0.7H477.5z
	 M477.7,126.1l-0.1,0.7h34.1v-0.7H477.7z M478,124.2l-0.1,0.7h33.9v-0.8L478,124.2z M478.2,122.4l-0.1,0.7h33.6v-0.7H478.2z
	 M478.5,120.6l-0.1,0.7h33.4v-0.7H478.5z M478.6,118.8c0,0,0,0.1,0.1,0.1c0,0,0,0.1,0,0.1l-0.1,0.5h33.1v-0.7L478.6,118.8z
	 M489,116.9h-11c0.1,0.3,0.2,0.5,0.3,0.7h10.5L489,116.9z M477.7,116.9l0.3,0.7h33.7v-0.7H477.7z M477.1,115.1
	c0.1,0.3,0.2,0.5,0.2,0.7h34.4v-0.7H477.1z M476.6,113.3c0.1,0.3,0.1,0.5,0.2,0.7h35v-0.7H476.6z M476.3,111.5
	C476.3,111.5,476.3,111.5,476.3,111.5c0,0.3,0,0.5,0.1,0.7h35.4v-0.7H476.3z M506.6,110.4c-0.1-0.2-0.2-0.5-0.2-0.7h-13.8
	c-0.1,0.3-0.1,0.5-0.2,0.7H506.6z M476.1,109.6c0,0.2,0,0.5,0,0.7h35.6v-0.7H476.1z M507,108.5c-0.1-0.2-0.2-0.5-0.2-0.7h-0.9
	l0.2,0.7H507z M476.3,107.8c0,0.2-0.1,0.5-0.1,0.7h35.5v-0.7H476.3z M476.8,106c-0.1,0.3-0.2,0.5-0.2,0.7h35.2V106H476.8z
	 M477.5,104.2c-0.1,0.2-0.2,0.5-0.3,0.7h34.5v-0.7H477.5z M478.4,102.3l-0.4,0.7h33.7v-0.7H478.4z M504.5,104.2h-20.1l1.7,0.7h18.6
	l-0.1-0.5L504.5,104.2z M479.4,100.5c-0.1,0.2-0.3,0.5-0.4,0.7h32.7v-0.7H479.4z M480.4,98.7l-0.4,0.7h31.7v-0.7H480.4z
	 M503.5,100.5c0.1,0.2,0.2,0.5,0.3,0.7h0c-0.1-0.2-0.1-0.5-0.2-0.7L503.5,100.5z M481.6,96.9c-0.1,0.2-0.2,0.3-0.3,0.4
	c-0.1,0.1-0.1,0.2-0.2,0.3h30.6v-0.7H481.6z M511.7,95.7c-0.1-0.2-0.2-0.5-0.3-0.7h-28.7l-0.5,0.7L511.7,95.7
	C511.7,95.8,511.7,95.7,511.7,95.7L511.7,95.7z M510.6,93.2h-26.7l-0.5,0.7h27.5C510.8,93.7,510.7,93.5,510.6,93.2L510.6,93.2z
	 M509.7,91.4h-24.6l-0.1,0.1l-0.1,0.2l-0.2,0.4h25.5L509.7,91.4z M484,93.2l-0.3,0.6l-0.1,0.2h11.4c0.1-0.2,0.1-0.5,0.1-0.7H484z
	 M508.8,89.5h-22.4l-0.5,0.7h23.3C509,90.1,508.9,89.8,508.8,89.5L508.8,89.5z M507.6,87.7h-20l-0.5,0.7h21
	C508,88.2,507.8,88,507.6,87.7L507.6,87.7z M506.9,86.6l-0.5-0.6c0,0-0.1-0.1-0.1-0.1H489l-0.6,0.8L506.9,86.6L506.9,86.6
	L506.9,86.6z M505,84.4l-0.3-0.2l-0.1-0.1h-14.2c-0.1,0.1-0.3,0.4-0.6,0.7h15.6C505.3,84.7,505.1,84.6,505,84.4L505,84.4z
	 M491.1,85.9c0.1,0.3,0.2,0.5,0.3,0.7h10.4c0-0.3,0.1-0.5,0.2-0.7H491.1z M502.9,82.7c-0.2-0.2-0.5-0.3-0.8-0.5h-9.5
	c-0.1,0.1-0.3,0.2-0.4,0.3c-0.2,0.1-0.4,0.3-0.7,0.5h11.7C503.2,82.9,503.1,82.8,502.9,82.7L502.9,82.7z"/>
<path class="st24" d="M500.6,83.3c-0.3,0.8-3.5,3.8-6.9,2.8c-1.6-0.5-1.5-4.7-1.5-4.7l0-0.5l-0.6-6.9l8.2-4l1.2-0.5
	c0,0,0,1.9,0.1,4.3v0.3c0,0.1,0,0.3,0,0.4c0,0.4,0,0.7,0,1.1s0,0.5,0,0.9s0,0.6,0,0.9C501,79.3,500.9,81.3,500.6,83.3z"/>
<path class="st10" d="M501.1,73.8c-0.9,1.8-2.1,3.4-3.7,4.6c-1.5,1.2-3.3,2.1-5.2,2.6l-0.6-6.9l8.2-4l1.2-0.5
	C501,69.5,501,71.4,501.1,73.8z"/>
<path class="st24" d="M483.1,63.9c-0.9,12.1,6,14,8.5,14.2c2.3,0.2,10.1,0.5,12.2-11.4c2.1-11.9-3-16.2-8.2-16.9
	C490.3,49.2,484,51.8,483.1,63.9z"/>
<path class="st10" d="M485.1,61.4c0.3,0,0.5-0.1,0.8-0.2c0.3,0,0.6-0.1,0.8-0.3c0.1-0.1,0.1-0.2,0.1-0.3c0-0.1,0-0.2-0.1-0.3
	c-0.1-0.1-0.3-0.2-0.5-0.3c-0.2,0-0.4,0-0.5,0c-0.4,0-0.7,0.2-1,0.5c0,0.1-0.1,0.1-0.1,0.2c0,0.1,0,0.2,0,0.2c0,0.1,0.1,0.1,0.1,0.2
	C484.9,61.3,485,61.3,485.1,61.4z"/>
<path class="st10" d="M492.7,61.8c-0.3,0-0.5-0.1-0.8-0.2c-0.3,0-0.6-0.1-0.8-0.3c-0.1-0.1-0.1-0.2-0.1-0.3c0-0.1,0-0.2,0.1-0.3
	c0.1-0.1,0.3-0.2,0.5-0.3c0.2,0,0.4,0,0.5,0c0.4,0.1,0.7,0.3,0.9,0.6c0.1,0.1,0.1,0.2,0.1,0.2c0,0.1,0,0.2-0.1,0.3
	c0,0.1-0.1,0.1-0.2,0.2C492.9,61.8,492.8,61.8,492.7,61.8z"/>
<path class="st10" d="M490.9,64.8C490.9,64.8,491,64.8,490.9,64.8c0,0.9,0.1,1.9,0.8,2.1c0,0,0,0.1,0,0
	C490.8,66.9,490.7,65.6,490.9,64.8z"/>
<path class="st10" d="M491.6,64c1.3-0.1,1.3,2.6,0.1,2.7C490.6,66.7,490.6,64,491.6,64z"/>
<path class="st10" d="M492.1,64.1c0.2,0.1,0.5,0.4,0.7,0.4c0.3,0,0.5-0.2,0.8-0.5h0c0,0.5-0.2,1-0.7,1.1c-0.5,0.1-0.8-0.4-1-0.9
	C492,64.2,492.1,64.1,492.1,64.1z"/>
<path class="st10" d="M486.6,64.4C486.6,64.4,486.5,64.4,486.6,64.4c-0.1,0.9-0.1,1.9-0.8,2.1v0.1C486.6,66.4,486.8,65.2,486.6,64.4
	z"/>
<path class="st10" d="M485.9,63.5c-1.3-0.1-1.3,2.6-0.2,2.7C486.9,66.3,486.9,63.6,485.9,63.5z"/>
<path class="st10" d="M485.3,63.7c-0.2,0.1-0.4,0.4-0.7,0.4c-0.2,0-0.5-0.3-0.7-0.6c0,0.5,0.1,1,0.6,1.2c0.5,0.1,0.8-0.3,0.9-0.9
	C485.5,63.8,485.4,63.7,485.3,63.7z"/>
<path class="st10" d="M491.5,71.3c-0.2,0.2-0.3,0.5-0.6,0.6c-0.3,0-0.6,0-0.9-0.1c0,0,0,0,0,0c0.1,0.1,0.3,0.2,0.5,0.3
	c0.2,0.1,0.4,0,0.6,0c0.2-0.1,0.3-0.2,0.4-0.3c0.1-0.2,0.1-0.3,0.1-0.5C491.6,71.3,491.6,71.3,491.5,71.3z"/>
<path class="st10" d="M487.8,68.1c0,0-0.2,1.2-0.2,1.8c0,0.1,0.1,0.1,0.3,0.1c0.5,0.1,1,0.1,1.4-0.1c0.5-0.2,0.9-0.5,1.2-0.9
	c0-0.1,0-0.1-0.1-0.1c-0.7,0.5-1.6,0.8-2.5,0.7c0-0.2,0.4-2.1,0.3-2.1c-0.4,0-0.9,0.1-1.3,0.3c0.3-2.6,1-5.1,1.2-7.7
	c0-0.1-0.1-0.1-0.1,0c-0.8,2.7-1.4,5.4-1.6,8.2C486.4,68.6,487.5,68.2,487.8,68.1z"/>
<path class="st10" d="M488,69.8c0.3,0.5,0.8,0.9,1.3,1.2c0.3,0.1,0.6,0.2,0.9,0.1c0.7-0.1,0.7-0.8,0.6-1.3c0-0.3-0.1-0.6-0.2-0.9
	C489.8,69.5,488.9,69.8,488,69.8z"/>
<path class="st27" d="M489.2,71c0.3,0.1,0.6,0.2,0.9,0.1c0.7-0.1,0.7-0.8,0.6-1.3c-0.4,0-0.7,0.1-1,0.3
	C489.5,70.3,489.3,70.6,489.2,71z"/>
<path class="st10" d="M503.5,65.9c-1.3-0.1-4.6-3.7-4.7-10c0,0,0.5,5.7,0.9,6.5c0.4,0.8-1.8-2-2-7.1c-1.6,1.1-3.3,2.1-5.1,2.7
	c-2.3,0.7-3.8,0.6-3.9,0.5c-0.2-0.2,3.3-1.3,4.2-2.4c0,0-6.2,3-9.1,3.2c-0.3,0-0.7-7,3.7-10c4.4-3,11.4,0.2,13.3,2.1
	c0,0,2.2,0.3,4.6,3.7C507.8,58.5,504.9,66,503.5,65.9z"/>
<path class="st24" d="M501,67.6c0,0,2.4-3.9,4.1-3.1c1.7,0.8,0.1,6.4-1.8,7.3c-0.2,0.1-0.5,0.2-0.8,0.2c-0.3,0-0.5,0-0.8-0.1
	c-0.3-0.1-0.5-0.2-0.7-0.4c-0.2-0.2-0.4-0.4-0.5-0.7L501,67.6z"/>
<path class="st10" d="M504.6,66.1C504.6,66.1,504.6,66.1,504.6,66.1c-0.6,0.4-1.1,0.9-1.6,1.5c-0.4,0.6-0.7,1.3-0.8,2
	c0.1-0.2,0.2-0.3,0.3-0.4c0.1-0.1,0.3-0.2,0.4-0.2c0.2,0,0.3,0,0.5,0s0.3,0.1,0.4,0.2v0.1c-0.2-0.1-0.5-0.1-0.7,0
	c-0.2,0.1-0.4,0.3-0.6,0.5c-0.2,0.4-0.4,0.8-0.6,1.2c-0.1,0.1-0.3,0.1-0.2-0.1C501.5,69,502.7,66.4,504.6,66.1z"/>
<path class="st28" d="M501.6,71.7c0,0.2,0.1,0.3,0.2,0.5c0.1,0.1,0.2,0.2,0.4,0.3c0.2,0.1,0.3,0.1,0.5,0c0.2,0,0.3-0.1,0.4-0.2
	c0.1-0.1,0.2-0.3,0.2-0.4c0-0.2,0-0.3-0.1-0.5c-0.1-0.2-0.2-0.3-0.3-0.4c-0.1-0.1-0.3-0.1-0.5-0.1c-0.1,0-0.2,0-0.3,0.1
	c-0.1,0-0.2,0.1-0.3,0.2c-0.1,0.1-0.1,0.2-0.2,0.3C501.6,71.4,501.6,71.5,501.6,71.7z"/>
<path class="st24" d="M511.7,95.8v26.9l-0.1-0.3l-0.4-1.1c-0.1-0.2-0.2-0.5-0.3-0.7l-0.4-1.1l-0.3-0.7l-0.4-1.1
	c-0.1-0.2-0.2-0.5-0.3-0.7c-0.1-0.2-0.2-0.7-0.4-1.1c-0.1-0.4-0.2-0.5-0.3-0.7c-0.1-0.2-0.2-0.7-0.4-1.1l-0.2-0.7l-0.2-0.7v-0.1
	l-0.1-0.3l-0.2-0.7c-0.1-0.4-0.2-0.7-0.4-1.1c0-0.1-0.1-0.2-0.1-0.2c0,0,0-0.1,0-0.1c0-0.1-0.1-0.2-0.1-0.4
	c-0.1-0.4-0.2-0.7-0.4-1.1c-0.1-0.4-0.2-0.5-0.2-0.7s-0.2-0.7-0.4-1.1c-0.1-0.4-0.2-0.5-0.2-0.7c-0.1-0.2-0.2-0.6-0.3-0.9
	c0-0.1-0.1-0.2-0.1-0.3c-0.1-0.2-0.2-0.5-0.2-0.7c-0.1-0.4-0.2-0.7-0.3-1.1l-0.2-0.7c-0.1-0.4-0.2-0.7-0.3-1.1s-0.2-0.5-0.2-0.7
	c-0.1-0.4-0.2-0.7-0.3-1.1s-0.1-0.5-0.2-0.7c-0.1-0.4-0.2-0.7-0.3-1.1c-0.1-0.4-0.1-0.5-0.2-0.7c-0.1-0.4-0.2-0.7-0.3-1.1
	c-0.1-0.3-0.1-0.5-0.2-0.7c-0.1-0.2-0.2-0.6-0.2-0.9c0-0.1,0-0.1,0-0.2c-0.1-0.3-0.1-0.5-0.2-0.7c-0.1-0.4-0.2-0.7-0.2-1.1
	c-0.1-0.3-0.1-0.5-0.1-0.7c-0.1-0.4-0.1-0.7-0.2-1.1c0-0.3-0.1-0.5-0.1-0.7c0-0.4,0-0.7,0-1.1c0-0.3,0-0.5,0-0.7
	c0-0.4,0.1-0.7,0.1-1.1c0-0.3,0.1-0.5,0.2-0.7c0.1-0.4,0.3-0.8,0.5-1.1c0.2-0.2,0.4-0.4,0.6-0.5c0.2-0.1,0.5-0.2,0.7-0.2
	c0.2,0,0.4,0,0.6,0.1c1.1,0.3,2.5,1.3,4.1,3.1c1,1.1,1.9,2.3,2.9,3.5L511.7,95.8C511.7,95.8,511.7,95.8,511.7,95.8z"/>
<path class="st25" d="M511.7,95.8v15.1l-1.2,0.6l-1.6,0.7l-0.7,0.3l-0.8,0.4c0,0-0.1-0.2-0.2-0.7c-0.1-0.2-0.2-0.5-0.3-0.7
	c-0.1-0.3-0.2-0.7-0.4-1.1c-0.1-0.2-0.2-0.5-0.2-0.7l-0.3-1.1l-0.2-0.7c-0.1-0.3-0.2-0.7-0.3-1.1c-0.1-0.2-0.1-0.5-0.2-0.7L505,105
	c0-0.1,0-0.1,0-0.2c-0.1-0.2-0.1-0.5-0.2-0.7c-0.1-0.3-0.2-0.7-0.3-1.1c-0.1-0.2-0.1-0.5-0.2-0.7c-0.1-0.2-0.2-0.7-0.3-1.1
	c-0.1-0.4-0.1-0.5-0.2-0.7c-0.1-0.2-0.2-0.7-0.3-1.1c-0.1-0.2-0.1-0.5-0.2-0.7c-0.1-0.2-0.2-0.7-0.3-1.1c-0.1-0.4-0.1-0.5-0.2-0.7
	c0-0.2-0.1-0.4-0.1-0.6c0-0.2-0.1-0.4-0.1-0.5c0-0.2-0.1-0.5-0.2-0.7l-0.1-0.5c0-0.2-0.1-0.4-0.1-0.6c0-0.2-0.1-0.5-0.1-0.7
	c-0.1-0.4-0.1-0.7-0.2-1.1c0-0.3-0.1-0.5-0.1-0.7c0-0.4-0.1-0.7-0.1-1.1l0-0.7c0-0.4,0-0.7,0-1.1c0-0.3,0-0.5,0-0.7
	c0-0.4,0.1-0.7,0.1-1.1c0-0.3,0.1-0.5,0.2-0.7c0.1-0.4,0.3-0.8,0.5-1.1c0.2-0.3,0.4-0.6,0.8-0.7c0.4-0.2,0.8-0.3,1.2-0.2
	c1.4,0.2,3.2,1.4,5.3,3.9c0.7,0.8,1.3,1.6,2,2.4L511.7,95.8C511.7,95.7,511.7,95.8,511.7,95.8z"/>
<path class="st10" d="M508.2,112.5c-0.2,0.1-0.4,0.2-0.7,0.2c-0.1-0.6-0.9-3.4-1.1-4.1c-0.4-1.5-0.8-2.9-1.3-4.4
	c-0.8-2.9-1.6-5.9-2.5-8.8c0-0.1-0.1,0-0.1,0c0.4,2.1,0.8,4.1,1.3,6.1c-0.1-0.3-0.3-0.7-0.4-1.1c-0.3-0.7-0.5-1.4-0.8-2.1
	c0,0,0,0,0,0c0,0,0,0,0,0c0,0,0,0,0,0c0,0,0,0,0,0c0.2,0.7,0.4,1.5,0.7,2.2c0.2,0.5,0.5,1.1,0.7,1.6c0.2,0.7,0.4,1.4,0.6,2.1
	c0.4,1.5,0.8,2.9,1.2,4.4c0.2,0.7,0.4,1.4,0.7,2.1c0.2,0.7,0.6,1.5,0.9,2.2C507.7,112.8,508,112.7,508.2,112.5
	C508.4,112.6,508.3,112.4,508.2,112.5z"/>
<path class="st10" d="M511.7,107.8v0.5l-0.6,0.3l-0.2,0.1c-0.8,0.4-1.6,0.7-2.3,1c-0.4,0.2-0.7,0.3-1.1,0.5c-0.1,0-0.1-0.1-0.1-0.1
	h0l0.7-0.4l2-1.1c0.3-0.2,0.5-0.3,0.7-0.4L511.7,107.8L511.7,107.8z"/>
<path class="st10" d="M491,83.3C491,83.3,491,83.3,491,83.3c-0.2,1.5-0.1,3.2,1.1,4.3c1.2,1.1,3,0.8,4.4,0.5c1.5-0.3,2.8-0.9,4-1.8
	c1-0.9,1.9-2.5,1-3.9c0-0.1,0-0.1,0-0.1c0.4,0.4,0.6,0.9,0.7,1.4c0.1,0.5,0,1.1-0.3,1.6c-0.7,1.2-1.7,2.1-2.9,2.6
	c-1.3,0.6-2.7,1-4.1,1.1c-0.6,0.1-1.3,0-1.9-0.2c-0.6-0.2-1.1-0.6-1.5-1.1c-0.4-0.6-0.7-1.3-0.8-2.1C490.7,84.7,490.7,84,491,83.3z"
	/>
<path class="st12" d="M511.7,95.8C511.7,95.8,511.7,95.8,511.7,95.8L511.7,95.8z"/>
<path class="st12" d="M511.9,308c0,0.1-0.1,0.2-0.1,0.4v-0.2L511.9,308z"/>
<path class="st29" d="M166.5,418.7c-1.9,0.6-55.5-0.1-57.5-1.5c-0.8-0.5-1.1-8.6-1.3-18.4c0-0.1,0-0.2,0-0.3c0-2-0.1-4.1-0.1-6.2
	c0-0.3,0-0.6,0-0.9l2.6-28.7l35.8,0.4l-3.5,28.5v1.1l-0.2,5.9v0.6c0,0,20.4,9.8,22.5,11.5C166.9,412.5,168.4,418.1,166.5,418.7z"/>
<path class="st5" d="M166.5,418.7c-1.9,0.6-55.5-0.1-57.5-1.5c-0.8-0.5-1.1-8.6-1.3-18.4c0-0.1,0-0.2,0-0.3c0-2-0.1-4.1-0.1-6.2
	c0-0.3,0-0.6,0-0.9l34.9,0.1v1.1l-0.2,5.9v0.6c0,0,20.4,9.8,22.5,11.5C166.9,412.5,168.4,418.1,166.5,418.7z"/>
<path class="st25" d="M166.5,418.7c-1,0.3-15.5,0.3-29.8,0c-2.9-0.1-5.7-0.1-8.4-0.2c-10.1-0.3-18.5-0.7-19.3-1.2
	c-0.8-0.5-1.1-8.4-1.3-18c0-0.1,0-0.3,0-0.4c0-0.1,0-0.2,0-0.3h0l34.5,0.1v0.6c0,0,20.4,9.8,22.5,11.5
	C166.9,412.5,168.4,418.1,166.5,418.7z"/>
<path class="st10" d="M165.9,416.5c-9-0.4-45.5-0.9-54.4-0.5c-0.1,0-0.1,0.1,0,0.1c8.9,0.6,45.4,0.8,54.4,0.6
	C166.1,416.7,166.1,416.5,165.9,416.5z"/>
<path class="st10" d="M146.2,398.8c-3.5-0.7-7.9-0.2-10.7,2.4c-0.1,0.1,0,0.3,0.1,0.2c3.4-1.1,6.9-1.8,10.5-2.1c0.1,0,0.1,0,0.2-0.1
	c0,0,0.1-0.1,0.1-0.2c0-0.1,0-0.1-0.1-0.2C146.3,398.8,146.3,398.8,146.2,398.8z"/>
<path class="st10" d="M148.7,400.4c-3.5-0.7-7.9-0.2-10.6,2.4c-0.1,0.1,0,0.3,0.1,0.2c3.4-1.1,6.9-1.8,10.5-2.1c0.1,0,0.1,0,0.2-0.1
	c0,0,0.1-0.1,0.1-0.2s0-0.1-0.1-0.2C148.8,400.4,148.7,400.4,148.7,400.4z"/>
<path class="st10" d="M151.3,402c-3.5-0.7-7.9-0.2-10.6,2.4c-0.1,0.1,0,0.3,0.1,0.2c3.4-1.1,6.9-1.8,10.5-2.1c0.1,0,0.1,0,0.1-0.1
	c0,0,0.1-0.1,0.1-0.1c0-0.1,0-0.1,0-0.2C151.4,402.1,151.3,402.1,151.3,402z"/>
<path class="st10" d="M136.8,418.7c-2.9-0.1-5.7-0.1-8.4-0.2c-10.1-0.3-18.5-0.7-19.3-1.2c-0.8-0.5-1.1-8.4-1.3-18
	c0-0.1,0-0.3,0-0.4c0-0.1,0-0.2,0-0.3h0C112.5,402,129.2,413.5,136.8,418.7z"/>
<path class="st30" d="M144.5,398.7h-38.6c0,0,7.8-93.2,7.5-94.8c-0.4-2.1-14.8-60.4-17.6-71.4c-4.1-16.5-7.4-29.4-7.4-29.4h32.7
	c0,0,3.8,12.5,8.6,28.8c7.8,26.4,18.3,62.8,19.3,71.6C150.7,317.8,144.5,398.7,144.5,398.7z"/>
<path class="st10" d="M143,391.9c-5.9-0.1-4.2-0.2-10.1-0.2c-2.9,0-21.8-0.2-24.5,0.3c0,0,0,0,0,0c0,0,0,0,0,0s0,0,0,0c0,0,0,0,0,0
	c2.7,0.5,21.7,0.3,24.5,0.3c5.9-0.1,4.2-0.1,10.1-0.2C143.1,392.1,143.1,391.9,143,391.9z"/>
<path class="st10" d="M120.8,298.2c-1.3-5.8-3.2-11.4-4.8-17.1c-3.3-11.5-6.7-23-10.1-34.5c-1.7-5.7-3.4-11.5-5.1-17.2
	c-0.9-2.9-1.7-5.8-2.6-8.7c-0.8-2.8-1.8-5.6-2.6-8.5c-0.3-1.2-0.5-0.5-0.1,0.9c0.8,3,1.6,6,2.5,8.9c1.6,5.9,3.3,11.8,5,17.6
	c3.3,11.7,6.7,23.4,10.1,35.1c1.7,5.9,3.4,11.7,5.1,17.6c0.9,2.8,1.6,5.6,2.1,8.5c0.4,3,0.5,6,0.3,9.1c-0.4,6.1-1.1,12.2-1.6,18.3
	s-1.1,12.2-1.6,18.3c-1.1,12.2-2.2,24.3-3.2,36.4c-0.1,1.5-0.3,3.1-0.4,4.6c0,0.5,0.7,0.5,0.8,0c1.3-12,2.2-24.1,3.3-36.1
	c1.1-12,2.2-24,3.2-35.9c0.3-3,0.6-6,0.6-9C121.7,303.7,121.4,300.9,120.8,298.2z"/>
<path class="st29" d="M126.2,418.7c-1.9,0.6-55.5-0.1-57.5-1.5c-0.8-0.5-1.1-8.6-1.3-18.4v-0.3c0-2-0.1-4.1-0.1-6.2
	c0-0.3,0-0.6,0-0.9l2.6-28.7l35.8,0.4l-3.5,28.5v1.1l-0.2,5.9v0.6c0,0,20.4,9.8,22.5,11.5C126.6,412.5,128.1,418.1,126.2,418.7z"/>
<path class="st5" d="M126.2,418.7c-1.9,0.6-55.5-0.1-57.5-1.5c-0.8-0.5-1.1-8.6-1.3-18.4v-0.3c0-2-0.1-4.1-0.1-6.2
	c0-0.3,0-0.6,0-0.9l34.9,0.1v1.1l-0.2,5.9v0.6c0,0,20.4,9.8,22.5,11.5C126.6,412.5,128.1,418.1,126.2,418.7z"/>
<path class="st25" d="M126.2,418.7c-1,0.3-15.5,0.3-29.8,0c-2.9-0.1-5.7-0.1-8.4-0.2c-10.1-0.3-18.5-0.7-19.3-1.2
	c-0.8-0.5-1.1-8.4-1.3-18c0-0.1,0-0.3,0-0.4c0-0.1,0-0.2,0-0.3l34.5,0.1v0.6c0,0,20.4,9.8,22.5,11.5
	C126.5,412.5,128.1,418.1,126.2,418.7z"/>
<path class="st10" d="M125.7,416.5c-9.1-0.4-45.5-0.9-54.4-0.5c-0.1,0-0.1,0.1,0,0.1c8.9,0.6,45.4,0.8,54.4,0.6
	C125.8,416.7,125.8,416.5,125.7,416.5z"/>
<path class="st10" d="M105.9,398.8c-3.5-0.7-7.9-0.2-10.6,2.4c-0.1,0.1,0,0.3,0.1,0.2c3.4-1.1,6.9-1.8,10.5-2.1c0,0,0.1,0,0.1,0
	c0,0,0.1,0,0.1,0c0,0,0,0,0.1-0.1c0,0,0-0.1,0-0.1c0,0,0-0.1,0-0.1c0,0,0-0.1,0-0.1C106,398.8,106,398.8,105.9,398.8
	C105.9,398.8,105.9,398.8,105.9,398.8z"/>
<path class="st10" d="M108.4,400.4c-3.5-0.7-7.9-0.2-10.7,2.4c-0.1,0.1,0,0.3,0.1,0.2c3.4-1.1,6.9-1.8,10.5-2.1c0,0,0.1,0,0.1,0
	c0,0,0.1,0,0.1,0c0,0,0,0,0-0.1c0,0,0-0.1,0-0.1c0,0,0-0.1,0-0.1c0,0,0-0.1,0-0.1C108.6,400.5,108.5,400.4,108.4,400.4
	C108.5,400.4,108.4,400.4,108.4,400.4z"/>
<path class="st10" d="M111,402c-3.5-0.7-7.9-0.2-10.7,2.4c-0.1,0.1,0,0.3,0.1,0.2c3.4-1.1,6.9-1.8,10.5-2.1c0.1,0,0.1,0,0.1-0.1
	c0,0,0.1-0.1,0.1-0.1c0-0.1,0-0.1,0-0.2C111.1,402.1,111,402.1,111,402z"/>
<path class="st30" d="M120.1,203.1c0,0-0.8,16.2-4.3,29c-0.3,1.1-0.6,2.1-0.9,3.1c0,0,0.5-0.4-5.2,3.2c0,0,2.2,64.4,2.3,68.2
	c0.3,14.4-9.8,92.7-9.8,92.7l-38.6,0.2c0,0,13.8-88.8,13.7-94.1c-0.1-8.5-4.9-45.2-3.4-72.5c0.6-10.4,3.3-20.5,7.8-29.8H120.1z"/>
<path class="st10" d="M101,392.2c-5.9-0.1-4.2-0.2-10.1-0.2c-2.9,0-21.8-0.1-24.5,0.4c0,0,0,0,0,0c0,0,0,0,0,0c0,0,0,0,0,0
	c0,0,0,0,0,0c2.7,0.5,21.6,0.2,24.5,0.2c5.9-0.1,4.2-0.1,10.1-0.3c0,0,0,0,0.1,0C101.1,392.4,101.1,392.3,101,392.2
	C101.1,392.3,101.1,392.3,101,392.2C101,392.2,101,392.2,101,392.2z"/>
<path class="st10" d="M84.2,205.5c-4.9,9.7-6.7,20.7-7.1,31.5c-0.4,11.8,0.9,23.5,2.1,35.2c1.3,12.3,2.3,24.6,1.4,36.9
	c-0.9,12.3-3.1,24.8-4.8,37.2s-3.5,24.7-5,37.1c-0.2,1.6-0.4,3.1-0.6,4.7c0,0.1,0.1,0.1,0.1,0c2.1-12.2,3.9-24.5,5.7-36.8
	c1.8-12.3,3.8-24.4,5-36.7c1.2-12.3,0.7-24.5-0.5-36.8c-1.1-11.8-2.7-23.6-2.7-35.5c0-11.1,1-22.4,4.8-32.8c0.5-1.4,1-2.8,1.6-4.1
	C84.4,205.3,84.3,205.3,84.2,205.5z"/>
<path class="st10" d="M116.6,234.3c-3.8,1.7-7.5,3.7-11,6c0,0-0.1,0-0.1,0.1c0,0,0,0.1,0,0.1c0,0,0,0.1,0.1,0.1c0,0,0.1,0,0.1,0
	c3.7-1.9,7.5-3.7,11.1-5.7c0,0,0.1-0.1,0.1-0.1c0-0.1,0-0.1,0-0.2c0-0.1-0.1-0.1-0.1-0.1C116.7,234.2,116.7,234.2,116.6,234.3z"/>
<path class="st10" d="M116.8,220.5c-0.3,1.4-0.6,2.8-0.9,4.3c-0.3,1.4-0.5,2.7-0.8,4c-0.3,1.3-0.9,2.4-1.8,3.3
	c-0.5,0.5-1.1,0.9-1.6,1.3c-0.3,0.2-0.6,0.5-0.9,0.7c0-0.2,0.1-0.4,0.1-0.6c0.1-0.5,0.2-1.1,0.3-1.6c0.2-1.2,0.4-2.4,0.6-3.6
	c0.3-2.4,0.7-4.7,1.1-7.1c0-0.1-0.1-0.1-0.1,0c-0.6,2.3-1.2,4.6-1.7,6.9c-0.2,1.1-1.1,6.8-1.1,7.2c0,0.4-0.1,0.9-0.1,1.2
	c-0.1,0.4-0.1,0.8,0,1.3c0,0.1,0.1,0.1,0.2,0c0.2-0.4,0.3-0.8,0.3-1.2c0.1-0.4,0.2-0.8,0.3-1.2c0-0.1,0-0.3,0.1-0.5
	c0.5-0.3,1-0.8,1.5-1.2c0.5-0.4,1.1-0.8,1.6-1.2c0.9-0.8,1.6-1.9,2-3.2c0.3-1.3,0.5-2.7,0.6-4c0.2-1.6,0.3-3.2,0.5-4.8
	C117,220.5,116.8,220.4,116.8,220.5z"/>
<path class="st29" d="M114.2,157.2c0.5,6.6,4.3,22.3,12.8,36.1c3.3,5.3,16.5,12.4,27.3,17c4,1.8,8.1,3.2,12.3,4.4
	c0.4,0.1,0.9,0.2,1.3,0.2c5.2,0.6,8.7-7.4,9.3-13.4c0-0.2,0-0.3,0-0.5v-0.3c0.1-2.5-0.3-4.5-1.3-5.3c-0.4-0.3-0.8-0.5-1.1-0.7
	c-3.1-1.7-6.3-3.1-9.5-4.5c-0.9-0.4-1.9-0.9-3-1.2c-9.5-3.9-20.4-8.2-21.4-9.2c-1.6-1.6-11.9-13.8-17.7-24.3
	C118.7,147.7,113.4,146.2,114.2,157.2z"/>
<path class="st29" d="M154.3,210.3c4,1.8,8.1,3.2,12.3,4.4c5.2,1.4,10.6,2.1,15.9,2.2c3.3,0,12.8-1,13-3.6c0.2-2.6-2.6-2.6-2.6-2.6
	s3.9-1,3.9-3.7c0-2.2-2.9-2.4-4-2.4c0,0-0.1,0-0.1,0c0,0-0.1,0-0.1,0h-0.2c0,0,4-1.4,3.8-4c-0.2-2.4-3.7-1.8-4.4-1.7
	c0.6-0.2,3.5-1.3,2.5-3.2c-1.3-2.6-7.9,0.3-11.5,0.1c-0.2,0-1.1-0.1-2.4-0.3c-2.7-2.1-6.1-4.1-7.6-4.5c-2.5-0.4-5.1-0.7-7.6-0.7
	c-0.9-0.4-1.9-0.9-3-1.2C160.1,191.3,154,199.3,154.3,210.3z"/>
<path class="st29" d="M166,193.5l-0.8,11.5v0v0.3l-0.6,8.7c0.6,0.3,1.3,0.5,2,0.6c5.2,1.4,10.6,2.1,15.9,2.2c3.3,0,12.8-1,13-3.6
	c0.2-2.6-2.6-2.6-2.6-2.6s3.9-1,3.9-3.7c0-2.2-2.9-2.4-4-2.4h-0.4c0,0,4-1.4,3.8-4c-0.2-2.4-3.7-1.8-4.4-1.7h-0.1h0.1
	c0.6-0.2,3.5-1.3,2.5-3.2c-1.3-2.6-7.9,0.3-11.5,0.1c-0.2,0-1.1-0.1-2.4-0.3l-5.6-0.7L166,193.5z"/>
<path class="st10" d="M179.2,200.1c1.5,0.5,3.1,0.8,4.6,1c2.8,0.3,5.6-0.4,7.9-2.1c0.1-0.1,0.1-0.2,0.1-0.2c0,0-0.1,0-0.1,0
	c0,0-0.1,0-0.1,0c-2.3,1.1-4.8,1.7-7.4,1.7c-1.7,0-3.4-0.2-5-0.6C179.1,199.9,179,200.1,179.2,200.1z"/>
<path class="st10" d="M179.4,205.8c5.2,1,8.3,1.4,13.3-1c0.2-0.1,0.2-0.2,0.1-0.3c0,0-0.1,0-0.1,0c0,0-0.1,0-0.1,0
	c-5.2,1.7-7.9,1.7-13.2,1.2C179.3,205.6,179.3,205.8,179.4,205.8z"/>
<path class="st10" d="M192.5,210.8c-5.2,1.2-8.1,1.4-13.2,0.2c0,0,0,0-0.1,0c0,0,0,0,0,0.1s0,0,0,0.1c0,0,0,0,0.1,0
	c5.1,1.8,8.8,1.6,13.3-0.2C192.8,210.8,192.8,210.7,192.5,210.8z"/>
<path class="st29" d="M167.4,204.8c0.3,0,0.6-0.1,0.8-0.2l0.2-0.1c4.2-1.4,5.8-8,5.8-8c1.4,0.4,2.9,0.6,4.4,0.7
	c2.1,0.1,4.3-0.1,5.5-0.9c0.3-0.2,0.6-0.5,0.8-0.9c0.1-0.2,0.2-0.4,0.2-0.6c0,0,0,0,0-0.1c0.2-1.2-2.2-2.6-5.1-3.8
	c-3.2-1.3-6.9-2.2-8.5-2.1c-2.5,0.3-5.1,0.8-7.5,1.5c-1,0.3-1.7,0.5-1.7,0.5S162.4,205.4,167.4,204.8z"/>
<path class="st10" d="M184.7,195.7c-2.8,2.5-7.1,1.1-10.4,0.6c-0.2,0-0.4,0.1-0.4,0.3c-1,3.1-3.2,7.3-6.4,8.3c0,0,0,0-0.1,0
	c0,0,0,0,0,0.1c0,0,0,0,0,0.1c0,0,0,0,0.1,0c3.6-0.6,6.1-4.5,6.9-8C177.9,197.7,182.2,198.9,184.7,195.7L184.7,195.7z"/>
<path class="st25" d="M117.9,177.4l20.5-2.4c0,0-12.7-19.4-18-24c-6-5.2-7.2-0.9-6.7,6.7C114.3,165.4,117.9,177.4,117.9,177.4z"/>
<path class="st14" d="M117.9,177.4l20.5-2.4c0,0-12.7-19.4-18-24c-6-5.2-7.2-0.9-6.7,6.7C114.3,165.4,117.9,177.4,117.9,177.4z"/>
<path class="st10" d="M134.4,171.3c-2.6,0-10.6,1.1-11.9,1.2c-0.7,0.1-3.4,0.6-4.1,0.6c-0.1,0-0.1,0.1,0,0.1c1.3-0.2,2.7-0.2,4-0.3
	c1.3-0.1,9.4-1,12-1.6C134.4,171.4,134.4,171.4,134.4,171.3C134.5,171.3,134.5,171.3,134.4,171.3
	C134.5,171.3,134.5,171.3,134.4,171.3C134.4,171.3,134.4,171.3,134.4,171.3z"/>
<path class="st10" d="M128.9,176.1l-11,1.3c0,0-3.6-12-4.1-19.7c-0.4-5.6,0.2-9.3,2.8-9L128.9,176.1z"/>
<path class="st25" d="M75,218.7c0.1,0.2,53.1,5.8,53.7,5.2c0.8-0.8-4.3-65-9.3-73.3c-1.1-1.8-9.7-4.3-13.5-1.5
	C93.7,158.1,74.6,218.2,75,218.7z"/>
<path class="st14" d="M114.9,170.2l-10.1-1l-0.2,1.7l10.1,1L114.9,170.2z"/>
<path class="st25" d="M150.4,180.3c-0.3,0.4-6.6,12.6-6.9,14c-0.3,1.4-9.1,34.9-8.6,35.9c0.5,1,14.3,6.6,14.9,6.6s28-6.3,29.5-7.4
	c1.5-1.1,2-27.2,1.5-29.8c-0.6-2.7-2.2-7.5-2.2-7.5l1-1.5c0,0-2.8-12.3-3.4-11.9C175.8,179.1,151,179.4,150.4,180.3z"/>
<path class="st14" d="M149.9,236.8c-0.6,0-14.4-5.6-14.9-6.6c-0.5-1,8.3-34.5,8.6-35.9c0.2-1.4,6.6-13.6,6.9-14
	c1.2,2.6,2.1,13.8,2.3,15.3C152.8,197,150.2,233.8,149.9,236.8z"/>
<path class="st14" d="M178.7,192c-2.1,0.3-4.2,0.5-6.3,0.8c-2.1,0.2-4.2,0.4-6.3,0.5c-2.1,0.1-4.2,0.3-6.3,0.4
	c-2.1,0.1-4.2,0.2-6.4,0.2c-0.1,0-0.2-0.1-0.3-0.1c-0.1-0.1-0.2-0.2-0.2-0.3c-0.1-0.2-0.2-0.3-0.2-0.5c-0.1-0.3-0.2-0.7-0.2-1
	c-0.1-0.7-0.2-1.3-0.2-2c0.1,0.7,0.3,1.3,0.4,1.9c0.1,0.3,0.2,0.6,0.3,0.9c0.1,0.3,0.3,0.6,0.4,0.6c2.1-0.2,4.2-0.4,6.3-0.6
	c2.1-0.2,4.2-0.3,6.3-0.4c2.1-0.1,4.2-0.2,6.3-0.3C174.5,192.1,176.5,192.1,178.7,192z"/>
<path class="st28" d="M171.9,196.9l-3.9,0l-2.5-8l3.9,0L171.9,196.9z"/>
<g class="st31">
	<path class="st14" d="M150,183.1c-0.5,3.7-1.1,7.4-1.6,11c-0.6,3.7-1.2,7.3-1.8,11c-0.6,3.7-1.3,7.3-2,10.9l-1.1,5.5
		c-0.4,1.8-0.8,3.6-1.2,5.4c0.2-1.8,0.5-3.7,0.8-5.5l0.8-5.5c0.6-3.7,1.2-7.3,1.8-11c0.6-3.7,1.3-7.3,2-10.9
		C148.4,190.4,149.2,186.8,150,183.1z"/>
	<path class="st14" d="M136.1,229.6c1.9-1.1,4-2.1,6-3l0.2-0.1l0.2,0.2c1.1,1.3,2.2,2.6,3.2,4c1.1,1.4,2.1,2.7,3,4.2
		c-1.2-1.2-2.4-2.4-3.5-3.7c-1.1-1.3-2.2-2.6-3.3-3.9l0.4,0.1C140.3,228.2,138.3,228.9,136.1,229.6z"/>
</g>
<path class="st29" d="M100.9,155.7c-4.9,13.8-14.2,48.3-7.4,52.7c11.2,7.2,34.1,9.4,41,9.4c3,0,6.5-23.7,3.4-24.6
	c-3.7-1-27.5-1.8-27.9-3.8c-0.3-1.1,0.5-12.4-0.8-24.8C107.7,150.3,102.6,151,100.9,155.7z"/>
<path class="st29" d="M127.8,195c0,0,7.6-5.2,12.7-8.4c2.8-1.8,8-4.3,10.6-4.6c4-0.5,20.9,0.3,20.8,4.5c-0.1,3.8-14.6,1.3-14.6,1.3
	s14.8,1.2,13.9,5.8c-0.9,4.6-16.9-0.5-16.9-0.5s15.2,1.6,13.5,6.2c-1.3,3.5-16-0.3-16-0.3s13.1,1.5,11.9,5.1
	c-1.3,4-15.1,1.4-15.1,1.4c-4.4,8.7-9.8,11.6-14.1,12.2C133.6,218,127.8,195,127.8,195z"/>
<path class="st10" d="M152.3,187.1c1.7,0.1,3.5,0.1,5.3,0.4c1.7,0.2,3.5,0.5,5.2,0.9c2.2,0.5,4.4,1.2,6.5,2.2
	c-3.8-1.5-10-2.4-11.7-2.7C155.7,187.7,154,187.4,152.3,187.1C152.2,187.2,152.3,187.1,152.3,187.1z"/>
<path class="st10" d="M151.4,193.6c2.2,0.2,4.4,0.3,6.7,0.6c2.2,0.3,4.3,0.8,6.5,1.2c0.2,0,0.1,0.1-0.1,0.1
	c-2.2-0.4-4.3-0.5-6.5-0.9C155.7,194.3,153.5,193.9,151.4,193.6C151.3,193.6,151.3,193.6,151.4,193.6z"/>
<path class="st10" d="M149.6,199c3.4,0.2,6.8,0.8,10.1,1.7c0.2,0,0.1,0.1-0.1,0.1c-3.4-0.6-6-1.2-10-1.7
	C149.5,199.1,149.5,199,149.6,199z"/>
<path class="st10" d="M147.5,183c-3.3,0.8-14.7,8.2-15.9,9.3c-0.9-0.1-4.8-0.3-5.3-0.3c0,0,0,0,0,0c0,0,0,0,0,0.1s0,0,0,0.1
	c0,0,0,0,0,0c0.4,0.2,4.3,0.7,5.2,0.9c0.2,0,13.3-8.5,16.2-9.9C147.8,183,147.6,182.9,147.5,183z"/>
<path class="st25" d="M111.5,179.1L91.4,184c0,0,5.6-22.7,9.1-28.9c3.9-7,6.5-3.4,8.5,4C110.9,166.5,111.5,179.1,111.5,179.1z"/>
<path class="st14" d="M111.5,179.1L91.4,184c0,0,5.6-22.7,9.1-28.9c3.9-7,6.5-3.4,8.5,4C110.9,166.5,111.5,179.1,111.5,179.1z"/>
<path class="st10" d="M109.9,175.5c-2.6,0.3-10.4,2.2-11.7,2.6c-0.7,0.2-3.4,0.9-4,1.1c-0.1,0,0,0.2,0,0.1c1.3-0.3,2.6-0.5,3.9-0.8
	c1.3-0.3,9.3-2,11.8-2.9C109.9,175.6,109.9,175.6,109.9,175.5C110,175.6,110,175.6,109.9,175.5C110,175.6,110,175.6,109.9,175.5
	C109.9,175.5,109.9,175.5,109.9,175.5z"/>
<path class="st10" d="M97.1,163.9c0-0.1-0.1-0.1-0.1,0c-0.7,1.9-1.3,3.7-1.9,5.6c0.1-1,0.3-2.1,0.5-3.1c0,0,0-0.1-0.1,0
	c-0.4,1.2-0.6,2.3-0.6,3.6c-0.4,1.3-0.8,2.6-1.2,4c-1,3.4-2.1,6.8-2.9,10.2c0,0,0,0.1,0,0.1c0,0,0,0.1,0.1,0.1c0,0,0.1,0.1,0.1,0.1
	c0,0,0.1,0,0.1,0c0.7-0.2,1.4-0.4,2.1-0.7c0.1,0,0.1-0.1,0-0.1c-0.6,0.1-1.2,0.2-1.8,0.3c1.1-3.2,1.9-6.5,2.9-9.8
	C95.3,170.9,96.3,167.3,97.1,163.9z"/>
<path class="st10" d="M111.1,170c0-1.1,0-2.3,0-3.4c0,0,0,0,0,0c0,0.8-0.1,1.7-0.1,2.5c-0.2-1.6-0.4-3.3-0.7-4.9c0,0,0,0,0,0
	c0.1,2.5,0.4,5,0.5,7.5c0.2,2.5,0.4,4.9,0.6,7.3c-0.4,0.2-0.9,0.4-1.3,0.5c0,0,0,0,0,0c0,0,0,0,0,0.1c0,0,0,0,0,0c0,0,0,0,0.1,0
	c0.5-0.1,1-0.2,1.5-0.3c0.1,0,0.1,0,0.2-0.1c0,0,0.1-0.1,0.1-0.2C111.7,176.1,111.5,173,111.1,170z"/>
<path class="st29" d="M115.4,158.1c-1.9,0.1-7-4-8.7-8c-0.1-0.3,1.8-10.7,2-12.8c0-0.4,12.4,4.3,12.4,4.3c-0.9,2.6-1.6,5.2-1.9,7.9
	c0,0.3,0,0.6,0,0.9c0,0,0,0.1,0,0.1C119.4,152.3,118.2,157.9,115.4,158.1z"/>
<path class="st10" d="M109.5,137.4c0.2,3.2,1.4,12.3,8.4,13.1c0.4,0.1,0.9,0.1,1.3,0c0,0,0-0.1,0-0.1c0-0.3,0-0.6,0-0.9
	c0.3-2.7,1-5.4,1.9-7.9C121.2,141.6,112.3,138.2,109.5,137.4z"/>
<path class="st29" d="M110.1,119.6c-2.3,4.3-2.8,18-0.2,21.7c3.7,5.3,11,7.4,15.7,2.5c4.6-4.7,4.8-22.7,1.9-26.1
	C123.1,112.5,113.5,113.3,110.1,119.6z"/>
<path class="st10" d="M120.6,130.3C120.6,130.3,120.6,130.3,120.6,130.3c-0.1,1-0.2,2.1-1.1,2.3v0.1
	C120.6,132.6,120.8,131.2,120.6,130.3z"/>
<path class="st10" d="M119.9,129.3c-1.4-0.2-1.6,2.8-0.3,3C120.9,132.5,121.1,129.5,119.9,129.3z"/>
<path class="st10" d="M125.8,130.9C125.8,130.9,125.8,130.9,125.8,130.9c0,1,0,2.1,0.8,2.4c0,0,0,0.1,0,0.1
	C125.6,133.2,125.5,131.8,125.8,130.9z"/>
<path class="st10" d="M126.6,130c1.4,0,1.3,3,0,3C125.3,133,125.4,130,126.6,130z"/>
<path class="st10" d="M118.8,127.9c0.4-0.1,0.8-0.2,1.1-0.3c0.4,0,0.8-0.2,1.1-0.6c0.1-0.1,0.1-0.3,0.1-0.4c0-0.1-0.1-0.3-0.1-0.4
	c-0.2-0.2-0.5-0.3-0.7-0.4c-0.3,0-0.5,0-0.8,0.1c-0.5,0.1-1,0.4-1.4,0.9c-0.1,0.1-0.1,0.2-0.1,0.4c0,0.1,0,0.3,0.1,0.4
	c0.1,0.1,0.2,0.2,0.3,0.3C118.6,127.9,118.7,127.9,118.8,127.9z"/>
<path class="st10" d="M127.9,128.6c-0.4-0.1-0.8-0.2-1.1-0.4c-0.4-0.1-0.8-0.3-1.1-0.6c-0.1-0.1-0.1-0.3-0.1-0.4
	c0-0.1,0.1-0.3,0.2-0.4c0.2-0.2,0.5-0.3,0.7-0.3c0.3,0,0.5,0,0.8,0.1c0.5,0.2,1,0.5,1.3,1c0.1,0.1,0.1,0.2,0.1,0.4
	c0,0.1-0.1,0.3-0.1,0.4c-0.1,0.1-0.2,0.2-0.3,0.2C128.1,128.6,128,128.6,127.9,128.6z"/>
<path class="st10" d="M119.2,138.9c0.2,0.2,0.4,0.5,0.7,0.6c0.3,0,0.7,0,1-0.2c0,0,0.1,0,0,0.1c-0.1,0.2-0.3,0.3-0.5,0.4
	c-0.2,0.1-0.4,0.1-0.6,0c-0.2-0.1-0.3-0.2-0.4-0.3c-0.1-0.2-0.2-0.3-0.2-0.5C119.1,138.8,119.1,138.8,119.2,138.9z"/>
<path class="st10" d="M122.9,137.5c-0.4,0.5-0.9,0.8-1.5,1c-0.3,0.1-0.7,0.1-1,0c-0.7-0.2-0.7-0.9-0.5-1.5c0.1-0.3,0.2-0.6,0.4-0.9
	C121,136.9,121.9,137.3,122.9,137.5z"/>
<path class="st27" d="M121.4,138.5c-0.3,0.1-0.7,0.1-1,0c-0.7-0.2-0.7-0.9-0.5-1.5c0.4,0,0.7,0.2,1,0.5
	C121.2,137.8,121.4,138.1,121.4,138.5z"/>
<path class="st10" d="M108.4,132.1c2.5-0.3,4.8-8.2,4.8-8.2s-0.5,3.4,0.1,3.4c0.6,0,3.9-4.3,4.7-7.6c1.7,1.6,3.5,2.9,5.5,3.9
	c2.8,1.4,5.8,1.6,5.8,1.1c0-1.6-0.3-5.7-1.3-6.9c-1.4-1.6-3.1-2.7-5-3.4c-1.9-0.6-4-0.7-6-0.2c-5.1,1.1-6.9,4.2-8,6.5
	C108,123.2,107.5,132.2,108.4,132.1z"/>
<path class="st25" d="M129.4,121.2c-1.2-0.5-8.2-1.4-11.5-0.5c-3.3,0.9-9.6,4.7-9.9,4.9c-0.3,0.2,0-11.9,9.6-12.6
	C128.1,112.2,129.4,121.2,129.4,121.2z"/>
<path class="st25" d="M108.6,125.2c0,0,7.4-7.4,11.1-8.8c3.7-1.4,11.5-1.3,15.9,1.6c3.5,2.3-6.3,5.8-6.3,5.8c0-0.4-0.1-0.8-0.3-1.2
	c-0.2-0.4-0.5-0.7-0.8-0.9c-2.2-1.3-6.7-1.2-9.3-0.8C115.6,121.6,108.6,125.2,108.6,125.2z"/>
<path class="st32" d="M108.6,125.2c0,0,7.4-7.4,11.1-8.8c3.7-1.4,11.5-1.3,15.9,1.6c3.5,2.3-6.3,5.8-6.3,5.8c0-0.4-0.1-0.8-0.3-1.2
	c-0.2-0.4-0.5-0.7-0.8-0.9c-2.2-1.3-6.7-1.2-9.3-0.8C115.6,121.6,108.6,125.2,108.6,125.2z"/>
<path class="st25" d="M118.2,135.8c-0.7-0.2-1.4-0.6-1.9-1.1c-0.5-0.6-0.9-1.2-1.1-2c-0.2-0.8-0.1-1.5,0.1-2.3s0.7-1.4,1.3-1.9
	c0.6-0.5,1.3-0.8,2-0.9c0.7-0.1,1.5,0,2.2,0.4c0.7,0.3,1.3,0.8,1.7,1.5c0.4,0.6,0.6,1.4,0.7,2.2c0,0.5-0.1,1.1-0.3,1.6
	c-0.2,0.5-0.5,1-0.8,1.4c-0.4,0.4-0.8,0.7-1.3,0.9s-1,0.3-1.5,0.3C118.9,135.9,118.6,135.8,118.2,135.8z M119.9,128.2
	c-0.3-0.1-0.5-0.1-0.8-0.1c-0.9,0-1.7,0.4-2.4,1c-0.6,0.6-1,1.5-1.1,2.4c0,0.9,0.3,1.8,0.8,2.5c0.6,0.7,1.4,1.1,2.3,1.2
	c0.9,0.1,1.8-0.2,2.5-0.7c0.7-0.6,1.2-1.4,1.3-2.3c0.2-0.9,0-1.8-0.5-2.6C121.5,129,120.8,128.4,119.9,128.2z"/>
<path class="st25" d="M127.4,136.8c-1.5-0.4-2.5-2.3-2.3-4.4c0.1-1,0.5-2,1.2-2.8c0.3-0.4,0.6-0.6,1-0.8c0.4-0.2,0.8-0.2,1.3-0.2
	c0.4,0.1,0.8,0.2,1.2,0.5c0.4,0.3,0.6,0.6,0.8,1c0.5,0.9,0.7,2,0.5,3c-0.3,2.3-1.8,4-3.4,3.8C127.6,136.8,127.5,136.8,127.4,136.8z
	 M128.7,129.2c-0.1,0-0.1,0-0.2,0c-0.3,0-0.7,0-1,0.2c-0.3,0.1-0.6,0.4-0.8,0.7c-0.6,0.7-0.9,1.6-1,2.5c-0.2,2,0.7,3.7,2,3.9
	c1.4,0.2,2.6-1.3,2.8-3.3c0.1-0.9,0-1.8-0.5-2.7c-0.1-0.3-0.3-0.6-0.6-0.8C129.3,129.4,129,129.3,128.7,129.2z"/>
<path class="st25" d="M123,132.1l-0.3-0.5c0.7-0.5,2.1-1,3,0.2l-0.4,0.3C124.5,131.1,123,132,123,132.1z"/>
<path class="st25" d="M105,131.1l-0.4-0.3c0.1-0.2,1.4-2.1,2.6-2.2c1.2-0.1,8.2,1.5,8.5,1.5l-0.1,0.5c-2-0.4-7.5-1.6-8.4-1.5
	C106.4,129.2,105.4,130.5,105,131.1z"/>
<path class="st29" d="M110.5,131c0,0-2.1-4.9-4.2-4.2c-2.1,0.7-1.1,7.3,1,8.7c0.3,0.2,0.5,0.3,0.8,0.4c0.3,0.1,0.6,0.1,0.9,0
	c0.3-0.1,0.6-0.2,0.8-0.4c0.3-0.2,0.5-0.4,0.6-0.7L110.5,131z"/>
<path class="st10" d="M106.7,128.7L106.7,128.7c1.4,1,2,2.7,2.2,4.3c-0.1-0.2-0.2-0.3-0.3-0.5c-0.1-0.1-0.3-0.2-0.5-0.3
	c-0.2-0.1-0.4-0.1-0.5-0.1c-0.2,0-0.4,0.1-0.5,0.1c0,0,0,0.1,0,0.1c0.3,0,0.6,0,0.8,0.2c0.3,0.2,0.5,0.4,0.6,0.7
	c0.2,0.5,0.4,0.9,0.5,1.4c0,0.2,0.3,0.1,0.3,0C109.8,132.5,108.8,129.3,106.7,128.7z"/>
<path class="st26" d="M325.3,359.7c25.6,0,40.5,18.4,40.5,40.1S352,439.4,327,439.4c-27.7,0-40.9-22.7-40.9-39.9
	S299.3,359.7,325.3,359.7z"/>
<path class="st10" d="M321.3,359.7c24.4,0,38.5,18.4,38.5,40.1s-13.1,39.7-36.8,39.7c-26.3,0-38.8-22.7-38.8-39.9
	S296.7,359.7,321.3,359.7z"/>
<path class="st18" d="M321.6,375.2c14.8,0,23.4,11.2,23.4,24.4c0,13.2-8,24.2-22.4,24.2c-16,0-23.7-13.9-23.7-24.3
	C298.9,389.1,306.5,375.2,321.6,375.2z"/>
<path class="st26" d="M139.5,424.9c31.6,0,42.1-17.2,42.1-37.9c0-20.7-14.7-38.3-43.4-38.3c18.7,0,29.6,17.6,29.6,38.3
	C167.9,407.8,157.8,424.9,139.5,424.9z"/>
<path class="st10" d="M138.3,348.8c18.7,0,29.6,17.6,29.6,38.3c0,20.7-10,37.9-28.3,37.9c-20.2,0-29.9-21.7-29.9-38.1
	C109.7,370.5,119.3,348.8,138.3,348.8z"/>
<path class="st10" d="M123.5,386.9c0,15.8-3.9,36.7,14.1,38h0.6h0.5h0.8c18.3,0,28.3-17.2,28.3-37.9c0-20.7-10.9-38.3-29.6-38.3h-1
	h-0.5c-0.3,0-0.6,0-0.9,0.1C119.7,350.6,123.5,371.2,123.5,386.9z"/>
<path class="st18" d="M137,363.6c10.4,0,16.4,10.7,16.4,23.3c0,12.6-5.6,23.1-15.7,23.1c-11.2,0-16.6-13.3-16.6-23.2
	C121,376.9,126.4,363.6,137,363.6z"/>
<path class="st25" d="M283.8,269.2h-10.1l-6.9-10.5h11.8L283.8,269.2z"/>
<path class="st33" d="M266.8,258.7l4,6.1l2.9,4.3h10.1l-2.7-5.5l-2.5-5H266.8z"/>
<path class="st14" d="M266.8,258.7l4,6.1l10.2-1.2l-2.5-5H266.8z"/>
<path class="st25" d="M308.3,347.4l-9.8,2.3l-9-8.6l11.5-2.7L308.3,347.4z"/>
<path class="st25" d="M289.5,341.1l5.3,5l3.7,3.6l9.8-2.3l-3.9-4.7l-3.5-4.3L289.5,341.1z"/>
<path class="st14" d="M289.5,341.1l5.3,5l9.7-3.5l-3.5-4.3L289.5,341.1z"/>
<path class="st30" d="M163,378.4l2.8,6.5c0,0,76.2,6,83.5,4.9c6.1-7.4,11.2-15.5,15.2-24.3H230c-5.1,0.1-10.2-1.1-14.8-3.4l-4.5-0.8
	l-8,4.1l-8.8,12.9l-24.4-0.5L163,378.4z"/>
<path class="st26" d="M202.6,365.5c0,0,19.5,12.4,57.6,8.2c1.4-2.5,2.8-5.2,4.2-8.2H230c-5.1,0.1-10.2-1.1-14.8-3.4l-4.5-0.8
	L202.6,365.5z"/>
<path class="st33" d="M363.5,364.8L354,370c0,0-27.6-5.2-45.3-1.3c-17.7,3.9-22.5,13.7-22.5,13.7h-8.9c0,0,7.7-28.2,20.7-38.5
	c13-10.3,34-7.9,45.6-1.5C355,348.9,363.5,364.8,363.5,364.8z"/>
<path class="st14" d="M353,368c-1.8-2-3.8-3.8-6-5.5c-2.1-1.7-4.4-3.2-6.7-4.6c-4.5-2.6-9.5-4.3-14.7-5c-10.1-1.3-20.6,1.8-28,9.8
	c-4.2,4.5-7.1,10.1-10,15.7c0,0.1,0.1,0.2,0.1,0.1c2.4-4.9,5.4-9.5,9-13.6c3.4-3.9,7.7-6.9,12.5-8.7c9.5-3.6,19.8-2.2,28.9,2.1
	c2.6,1.2,5.1,2.7,7.5,4.3c2.5,1.7,4.8,3.6,7.1,5.5c0,0,0,0,0.1,0c0,0,0,0,0.1,0S352.9,368.1,353,368C353,368.1,353,368.1,353,368z"
	/>
<path class="st33" d="M221.1,311.1v-3.5l-86.2,2.9v7.8c0,0-25,28.5-27.5,58.2l86.5,1.9l8.8-12.9l8-4.1l4.5,0.8v-2l-3.4-4.2
	l-0.1-12.3c-1.3-1.9-2.2-4-2.7-6.3c-0.5-2.3-0.6-4.6-0.2-6.9C209.6,324,221.1,311.1,221.1,311.1z"/>
<path class="st33" d="M185.8,374.2c-0.9,1.7-14,4.2-38.9,4.8c-22.4,0.6-39.1,0.1-40.4-1.4c-1.3-1.5,2-27.9,17.2-42.2
	c15.2-14.3,36.6-16.3,50.8-7.8C186.9,335.2,196.2,354.2,185.8,374.2z"/>
<path class="st14" d="M190,349.3c-1.3-6.2-4.4-12-8.8-16.4c-4.4-4.6-10-7.9-16.1-9.5c-6.8-1.7-13.9-1.7-20.6,0.2
	c-3.4,0.9-6.6,2.2-9.7,3.9c-3.3,1.8-6.3,4-9.2,6.4c-0.8,0.6-1.5,1.3-2.3,2c-0.1,0.1,0,0.1,0.1,0.1c2.9-2.6,5.9-4.9,9.2-6.9
	c3-1.8,6.2-3.2,9.5-4.2c6.5-2.1,13.5-2.5,20.2-1.2c6.1,1.3,11.7,4.2,16.3,8.5c4.4,4.1,7.7,9.4,9.4,15.3c2.1,7.2,1.4,15.1-0.7,22.2
	c-0.3,1-0.6,1.9-0.9,2.8c0,0.1,0.1,0.1,0.1,0C189.5,365.1,191.6,357.2,190,349.3z"/>
<path class="st14" d="M202.6,365.5l8-4.1l4.5,0.8v-2l-3.4-4.1l-0.1-12.3c-1.3-1.9-2.2-4-2.7-6.3c-0.5-2.3-0.6-4.6-0.2-6.9
	c1-6.6,12.5-19.4,12.5-19.4h-3.3c0,0-18.1,9.7-22.3,17.7C191.4,336.8,190.2,355.5,202.6,365.5z"/>
<path class="st11" d="M130.1,381.8c-15,0-23-0.5-27-2.1l1.9-4.9c4.7,1.9,19.5,1.9,43.2,1.6c17.6-0.2,30.5-1.9,38.6-5.1l1.8,4.9
	c-8.7,3.4-21.9,5.2-40.3,5.4C141.3,381.8,135.3,381.8,130.1,381.8z"/>
<path class="st10" d="M248.1,263.5c-0.1,0.3-20.1,4.1-20.1,4.1s-3.3-2.3-1.3-5.2l20-4.5c0.8,0.7,1.3,1.5,1.6,2.5
	C248.6,261.5,248.5,262.6,248.1,263.5z"/>
<path class="st33" d="M289.9,236.9v24.4c0,0-12.8-1.2-16.2-1.3c-3.4-0.1-18.5,1.9-18.5,1.9l-1.2-5.5c0,0,11.6-4.2,16.6-7.5
	c4.9-3.3,10.6-9.6,13.7-10.9C286.1,237.3,288,236.9,289.9,236.9z"/>
<path class="st11" d="M255.3,255.8c0.8,0.8,1.3,1.8,1.7,2.8c0.3,1.1,0.4,2.2,0.3,3.3c0,0-9.5,1.8-9.6,1.8c0.1-1.2-0.2-2.3-0.8-3.3
	c-0.6-1-1.5-1.8-2.5-2.2L255.3,255.8z"/>
<path class="st11" d="M290,261.3c3.5,0,6.2-5.5,6.2-12.2s-2.8-12.2-6.2-12.2c-3.5,0-6.2,5.5-6.2,12.2S286.6,261.3,290,261.3z"/>
<path class="st34" d="M285.1,249.1c0,6,2.4,10.9,5.4,10.9c3,0,5.4-4.9,5.4-10.9s-2.4-10.9-5.4-10.9
	C287.5,238.2,285.1,243.1,285.1,249.1z"/>
<path class="st26" d="M221.1,307.6c0,0,0.2-14.9-0.4-15.5c-0.6-0.6-86.4-0.3-88.9,0c-2.6,0.3-2.3,17.6-2.1,18.4
	C129.9,311.4,218.9,307.8,221.1,307.6z"/>
<path class="st30" d="M228.8,292.3c-0.3-0.2-11.1-0.3-11.7-0.3c-0.6,0-0.4,15.9,0,15.8c0.4,0,11.8-0.1,12.2-0.4
	C229.6,307.1,229.3,292.8,228.8,292.3z"/>
<path class="st30" d="M168.6,291.5c-0.3,0.2-0.5,0.6-0.6,1c-0.1,0.4-0.1,0.7-0.2,1.1c-0.1,0.8-0.1,1.5-0.1,2.3c0,1.5,0,3.1,0,4.6
	s0,3.1,0.1,4.6c0,0.8,0.1,1.5,0.3,2.3c0.1,0.4,0.2,0.7,0.3,1.1c0.1,0.2,0.2,0.3,0.3,0.4c0.1,0.1,0.3,0.2,0.5,0.2
	c-0.2,0-0.4,0-0.6-0.1c-0.2-0.1-0.3-0.2-0.4-0.4c-0.2-0.3-0.4-0.7-0.6-1.1c-0.3-0.7-0.4-1.5-0.5-2.3c-0.2-1.6-0.3-3.1-0.3-4.7
	c0-1.6,0.1-3.1,0.2-4.7c0.1-0.8,0.2-1.6,0.4-2.3c0.1-0.4,0.2-0.8,0.4-1.1C168,291.9,168.3,291.6,168.6,291.5z"/>
<path class="st26" d="M124.5,292h82.4v-53h-82.4V292z"/>
<path class="st28" d="M124.5,292H184v-53h-59.6V292z"/>
<path class="st26" d="M227,198.4h-25.7L181.2,239h25.7L227,198.4z"/>
<path class="st10" d="M204.1,198.4h-2.8L181.2,239h2.8L204.1,198.4z"/>
<path class="st35" d="M136.2,239h-5.1v53h5.1V239z"/>
<path class="st36" d="M173.7,239h-5.1v53h5.1V239z"/>
<path class="st37" d="M144.4,262.8h-5.8v0.8h5.8V262.8z"/>
<path class="st37" d="M166,262.8h-5.8v0.8h5.8V262.8z"/>
<path class="st33" d="M292.1,269.2c2.1,3.1,10.4,45.9,12,48.1c1.6,2.1,4.8,2.3,4.8,2.3l5.5,14.1c0,0-13.7,4.5-21.2,10.9
	c-9.8,8.3-18.9,36-18.9,36c-1.5,1.1-19.9,8.9-25,9.2c0,0,23.5-26.7,25.4-63.6c0.7-14.3-7.8-34.4-8.3-44.4c-0.6-10.7,2.5-12.6,8-12.6
	L292.1,269.2z"/>
<path class="st11" d="M248.2,392.9l-3.7-3.6c20.6-22.6,28.2-58.1,27.6-67.8c-0.3-5-1.9-10.5-3.5-16.4c-1.7-6.3-3.7-13.4-4.6-21.1
	c-0.8-7.2,0-11.8,2.4-14.6c2.4-2.8,5.6-2.8,7.8-2.8h19.6v5.2h-19.6c-1.9,0-3.2,0.1-4,1c-0.8,0.9-1.9,3.4-1.1,10.5
	c0.8,7.3,2.6,13.9,4.4,20.3c1.7,6.2,3.3,12,3.7,17.5C277.8,331.5,269.9,369.2,248.2,392.9z"/>
<path class="st11" d="M304.2,329c1.2,4.4,4.8,7.2,8.1,6.3s5.1-5.3,3.9-9.7c-1.2-4.4-4.8-7.2-8.1-6.3
	C304.8,320.2,303,324.6,304.2,329z"/>
<path class="st28" d="M305.4,328.6c1,3.9,4.2,6.4,7,5.6c2.9-0.8,4.3-4.6,3.3-8.5c-1-3.9-4.2-6.4-7-5.6
	C305.9,320.9,304.4,324.7,305.4,328.6z"/>
<path class="st14" d="M289.6,328.2c-0.9-4.4-1.9-8.8-2.8-13.3c-0.9-4.4-1.6-8.9-2.3-13.3c-0.7-4.2-1.4-8.3-1.6-12.6
	c-0.3-4.4,0-8.8,2.1-12.8c0,0,0,0,0,0c0,0,0,0,0,0c0,0,0,0,0,0c0,0,0,0,0,0c0,0,0,0,0,0c0,0,0,0,0,0c0,0,0,0,0,0c0,0,0,0,0,0
	c-2.1,3.2-2.8,7-2.9,10.8c0,4.2,0.4,8.4,1.1,12.5c1.2,9.1,2.9,18.1,4.9,27c1.2,5,2.7,10,4.4,14.9c0,0,0,0,0,0c0,0,0,0,0,0
	c0,0,0,0,0,0c0,0,0,0,0,0C291.5,337.1,290.5,332.7,289.6,328.2z"/>
<text transform="matrix(1 0 0 1 140.1796 255.2372)" class="st38 st39">JAPA</text>
<text transform="matrix(1 0 0 1 148.0577 265.5026)" class="st38 st40">TO</text>
<text transform="matrix(1 0 0 1 144.1994 278.3125)" class="st38 st39">GO</text>
</svg>
