<?xml version="1.0" encoding="utf-8"?>
<!-- Generator: Adobe Illustrator 22.0.0, SVG Export Plug-In . SVG Version: 6.00 Build 0)  -->
<svg version="1.1" id="Layer_1" xmlns="http://www.w3.org/2000/svg" xmlns:xlink="http://www.w3.org/1999/xlink" x="0px" y="0px"
	 viewBox="0 0 201 105" style="enable-background:new 0 0 201 105;" xml:space="preserve">
<style type="text/css">
	.st0{fill:none;}
	.st1{display:none;}
	.st2{display:inline;fill:none;}
	.st3{fill:#F2D60C;}
	.st4{fill:#BC4B31;}
</style>
<g>
	<title>background</title>
	<rect id="canvas_background" x="-1" y="-1" class="st0" width="203" height="107"/>
	<g id="canvasGrid" class="st1">
		<rect class="st2" width="201" height="105"/>
	</g>
</g>
<g>
	<title>Layer 1</title>
	<g id="svg_24">
		<g id="svg_5" transform="matrix(3.920910009799983,0,0,4.6292430235666515,-482.44914402979816,-381.65392929493095) ">
			<g id="svg_6">
				<path id="svg_7" class="st3" d="M144.4,92.5c0.1,0,1.8-0.2,2.9-0.2c0.4,0,0.6,0,0.8,0.1l0.9-0.5c0.1,0,0.2-0.1,0.3-0.1
					c0.1,0,0.2,0,0.3,0.1c0,0,0.8,0.6,1.6,0.6l0.1-0.1c0,0,0,0,0,0c0.1,0,0.2,0.1,0.3,0.2c0.1,0.1,6.5,4.7,15.1,8.5
					c0-0.4,0.1-0.8,0.1-1.1c0-9.6-7.8-17.4-17.4-17.4c-9.3,0-16.9,7.3-17.4,16.4c4.3-2,8.4-4.1,12.2-6.3
					C144.2,92.6,144.3,92.5,144.4,92.5L144.4,92.5z"/>
				<path id="svg_8" class="st4" d="M166.7,101.7c-8.8-3.8-15.4-8.6-15.4-8.6c0,0-0.1,0-0.1,0c-1,0-1.9-0.7-1.9-0.7l-1.2,0.6
					c0-0.1-0.3-0.2-0.8-0.2c-1.1,0-2.8,0.2-2.8,0.2c-4.2,2.5-8.5,4.7-12.5,6.5c-1.8,0.8-3.6,1.6-5.3,2.3c0.6,0.3,1,0.6,1.1,0.6
					c0.3,0-4.8,2.5-4.8,2.5l4-1.2v0.4v0.2l3.2-0.6l3.3-0.8l-3.1,2.1l5.1-2.1l1,1l3-3.2l-0.4,2.7l2.3-1.3c0,0-3.4,3.6-3.2,3.7
					c0,0,0,0,0,0c0.4,0,5.2-3.5,5.2-3.5s-2,2.7-1.5,2.9c0,0,0.1,0,0.2,0c1.3,0,6.7-0.9,9.3-2.7c0.9-0.6,1.6-0.8,2.1-0.8
					c1.1,0,1.5,1,1.5,1l4.1,2.2l-1.7-1.6c0,0,0.3,0,0.7,0c0.9,0,2.3,0.1,3.3,0.7c0.3,0.2,0.4,0.2,0.5,0.2c0.4,0-0.5-1.3-0.5-1.3
					s6.7,2.3,7.4,2.3c0,0,0,0,0.1,0c0.5,0-2.1-1.5-2.1-1.5l4.3,0.8l3.9,0.4c0-0.1,0-0.2,0-0.3C172,103.8,169.2,102.8,166.7,101.7
					L166.7,101.7z"/>
			</g>
		</g>
		<g id="svg_9" transform="matrix(3.920910009799983,0,0,4.6292430235666515,-482.44914402979816,-381.65392929493095) ">
		</g>
		<g id="svg_10" transform="matrix(3.920910009799983,0,0,4.6292430235666515,-482.44914402979816,-381.65392929493095) ">
		</g>
		<g id="svg_11" transform="matrix(3.920910009799983,0,0,4.6292430235666515,-482.44914402979816,-381.65392929493095) ">
		</g>
		<g id="svg_12" transform="matrix(3.920910009799983,0,0,4.6292430235666515,-482.44914402979816,-381.65392929493095) ">
		</g>
		<g id="svg_13" transform="matrix(3.920910009799983,0,0,4.6292430235666515,-482.44914402979816,-381.65392929493095) ">
		</g>
		<g id="svg_14" transform="matrix(3.920910009799983,0,0,4.6292430235666515,-482.44914402979816,-381.65392929493095) ">
		</g>
		<g id="svg_15" transform="matrix(3.920910009799983,0,0,4.6292430235666515,-482.44914402979816,-381.65392929493095) ">
		</g>
		<g id="svg_16" transform="matrix(3.920910009799983,0,0,4.6292430235666515,-482.44914402979816,-381.65392929493095) ">
		</g>
		<g id="svg_17" transform="matrix(3.920910009799983,0,0,4.6292430235666515,-482.44914402979816,-381.65392929493095) ">
		</g>
		<g id="svg_18" transform="matrix(3.920910009799983,0,0,4.6292430235666515,-482.44914402979816,-381.65392929493095) ">
		</g>
		<g id="svg_19" transform="matrix(3.920910009799983,0,0,4.6292430235666515,-482.44914402979816,-381.65392929493095) ">
		</g>
		<g id="svg_20" transform="matrix(3.920910009799983,0,0,4.6292430235666515,-482.44914402979816,-381.65392929493095) ">
		</g>
		<g id="svg_21" transform="matrix(3.920910009799983,0,0,4.6292430235666515,-482.44914402979816,-381.65392929493095) ">
		</g>
		<g id="svg_22" transform="matrix(3.920910009799983,0,0,4.6292430235666515,-482.44914402979816,-381.65392929493095) ">
		</g>
		<g id="svg_23" transform="matrix(3.920910009799983,0,0,4.6292430235666515,-482.44914402979816,-381.65392929493095) ">
		</g>
	</g>
</g>
</svg>
