<svg width="800.0000000000001" height="600" xmlns="http://www.w3.org/2000/svg">
 <!-- Created with Method Draw - http://github.com/duopixel/Method-Draw/ -->

 <g>
  <title>background</title>
  <rect fill="none" id="canvas_background" height="602" width="802" y="-1" x="-1"/>
  <g display="none" overflow="visible" y="0" x="0" height="100%" width="100%" id="canvasGrid">
   <rect fill="url(#gridpattern)" stroke-width="0" y="0" x="0" height="100%" width="100%"/>
  </g>
 </g>
 <g>
  <title>Layer 1</title>
  <g id="svg_13">
   <path id="svg_10" stroke-linejoin="round" stroke-linecap="round" stroke-miterlimit="10" stroke-width="2" stroke="white" d="m538.95639,459.28075l-231.5202,0"/>
  </g>
  <!-- Created with Method Draw - http://github.com/duopixel/Method-Draw/ -->
  <g stroke="null" id="svg_64">
   <g stroke="null" transform="matrix(4.107901870887808,0,0,5.609582939210987,-1256.0944290112043,-1443.1045970532405) " id="svg_61">
    <title stroke="null" transform="translate(-5.960450172424316,-0.8051650524139404) translate(-19.307703018188477,0.571171224117279) translate(7.669138431549072,-0.1659366637468338) translate(6.863979339599609,2.323113203048706) translate(3.079732894897461,2.8661787509918213) translate(7.306817054748535,2.4136240482330322) translate(302.8550720214844,0) translate(0,249.34767150878906) ">background</title>
   </g>
   <g stroke="null" transform="matrix(4.107901870887808,0,0,5.609582939210987,-1256.0944290112043,-1443.1045970532405) " id="svg_63">
    <title stroke="null" transform="translate(-5.960450172424316,-0.8051650524139404) translate(-19.307703018188477,0.571171224117279) translate(7.669138431549072,-0.1659366637468338) translate(6.863979339599609,2.323113203048706) translate(3.079732894897461,2.8661787509918213) translate(7.306817054748535,2.4136240482330322) translate(302.8550720214844,0) translate(0,249.34767150878906) ">Layer 1</title>
    <g stroke="null" id="svg_38">
     <g stroke="null" id="svg_54" transform="matrix(3.920910009799983,0,0,4.6292430235666515,-482.44914402979816,-381.65392929493095) ">
      <g stroke="null" id="svg_55">
       <path stroke="null" d="m221.53506,147.94972c0.072,-0.009 1.777,-0.21 2.865,-0.21c0.382,0 0.65,0.024 0.846,0.082l0.895,-0.493c0.08,-0.044 0.17,-0.066 0.258,-0.066c0.114,0 0.229,0 0.323,0.072c0.009,0.006 0.812,0.568 1.614,0.568l0.066,-0.076c0.008,0 0.015,0 0.022,0c0.112,0 0.222,0.11 0.312,0.176c0.084,0.061 6.545,4.734 15.101,8.481c0.024,-0.382 0.058,-0.759 0.058,-1.146c0,-9.622 -7.801,-17.422 -17.423,-17.422c-9.292,0 -16.863,7.281 -17.372,16.446c4.3,-1.952 8.403,-4.068 12.227,-6.342c0.063,-0.037 0.134,-0.061 0.208,-0.07z" fill="#894F3F" id="svg_57"/>
       <path stroke="null" d="m243.80606,157.06972c-8.795,-3.8 -15.382,-8.561 -15.382,-8.561c-0.029,0.001 -0.059,0.002 -0.089,0.002c-1.004,0 -1.937,-0.715 -1.937,-0.715l-1.183,0.649c0.026,-0.128 -0.328,-0.172 -0.822,-0.172c-1.069,0 -2.807,0.206 -2.807,0.206c-4.226,2.512 -8.476,4.659 -12.519,6.483c-1.831,0.826 -3.623,1.594 -5.344,2.286c0.554,0.343 1.031,0.632 1.14,0.632c0.271,0 -4.77,2.457 -4.77,2.457l4.036,-1.24l0,0.359l0,0.182l3.152,-0.631l3.287,-0.777l-3.089,2.107l5.083,-2.107l1.01,1.049l2.984,-3.157l-0.447,2.706l2.257,-1.264c0,0 -3.425,3.608 -3.155,3.697c0.003,0.002 0.007,0.002 0.012,0.002c0.38,0 5.218,-3.518 5.218,-3.518s-2,2.705 -1.496,2.887c0.042,0.014 0.124,0.021 0.239,0.021c1.276,0 6.72,-0.909 9.283,-2.729c0.878,-0.623 1.562,-0.837 2.084,-0.837c1.142,0 1.522,1.019 1.522,1.019l4.148,2.164l-1.714,-1.577c0,0 0.281,-0.025 0.709,-0.025c0.854,0 2.298,0.101 3.259,0.701c0.268,0.167 0.436,0.235 0.532,0.235c0.427,0 -0.532,-1.317 -0.532,-1.317s6.672,2.254 7.395,2.345c0.02,0.002 0.035,0.004 0.051,0.004c0.521,0 -2.125,-1.537 -2.125,-1.537l4.328,0.812l3.895,0.386c0.01,-0.088 0.022,-0.176 0.031,-0.264c-2.866,-0.806 -5.649,-1.843 -8.244,-2.963z" fill="#894F3F" id="svg_56"/>
      </g>
     </g>
     <g stroke="null" id="svg_53" transform="matrix(3.920910009799983,0,0,4.6292430235666515,-482.44914402979816,-381.65392929493095) "/>
     <g stroke="null" id="svg_52" transform="matrix(3.920910009799983,0,0,4.6292430235666515,-482.44914402979816,-381.65392929493095) "/>
     <g stroke="null" id="svg_51" transform="matrix(3.920910009799983,0,0,4.6292430235666515,-482.44914402979816,-381.65392929493095) "/>
     <g stroke="null" id="svg_50" transform="matrix(3.920910009799983,0,0,4.6292430235666515,-482.44914402979816,-381.65392929493095) "/>
     <g stroke="null" id="svg_49" transform="matrix(3.920910009799983,0,0,4.6292430235666515,-482.44914402979816,-381.65392929493095) "/>
     <g stroke="null" id="svg_48" transform="matrix(3.920910009799983,0,0,4.6292430235666515,-482.44914402979816,-381.65392929493095) "/>
     <g stroke="null" id="svg_47" transform="matrix(3.920910009799983,0,0,4.6292430235666515,-482.44914402979816,-381.65392929493095) "/>
     <g stroke="null" id="svg_46" transform="matrix(3.920910009799983,0,0,4.6292430235666515,-482.44914402979816,-381.65392929493095) "/>
     <g stroke="null" id="svg_45" transform="matrix(3.920910009799983,0,0,4.6292430235666515,-482.44914402979816,-381.65392929493095) "/>
     <g stroke="null" id="svg_44" transform="matrix(3.920910009799983,0,0,4.6292430235666515,-482.44914402979816,-381.65392929493095) "/>
     <g stroke="null" id="svg_43" transform="matrix(3.920910009799983,0,0,4.6292430235666515,-482.44914402979816,-381.65392929493095) "/>
     <g stroke="null" id="svg_42" transform="matrix(3.920910009799983,0,0,4.6292430235666515,-482.44914402979816,-381.65392929493095) "/>
     <g stroke="null" id="svg_41" transform="matrix(3.920910009799983,0,0,4.6292430235666515,-482.44914402979816,-381.65392929493095) "/>
     <g stroke="null" id="svg_40" transform="matrix(3.920910009799983,0,0,4.6292430235666515,-482.44914402979816,-381.65392929493095) "/>
     <g stroke="null" id="svg_39" transform="matrix(3.920910009799983,0,0,4.6292430235666515,-482.44914402979816,-381.65392929493095) "/>
    </g>
   </g>
  </g>
 </g>
</svg>